<?xml version="1.0" standalone="no"?>
<!DOCTYPE svg PUBLIC "-//W3C//DTD SVG 20010904//EN"
 "http://www.w3.org/TR/2001/REC-SVG-20010904/DTD/svg10.dtd">
<svg version="1.0" xmlns="http://www.w3.org/2000/svg"
 width="3005.000000pt" height="3005.000000pt" viewBox="0 0 3005.000000 3005.000000"
 preserveAspectRatio="xMidYMid meet">
<metadata>
Created by potrace 1.14, written by Peter Selinger 2001-2017
</metadata>
<g transform="translate(0.000000,3005.000000) scale(0.100000,-0.100000)"
fill="#000000" stroke="none">
<path d="M7758 22524 c-3 -3 -75 -6 -160 -8 -86 -2 -160 -6 -166 -10 -6 -3
-13 -2 -17 4 -4 6 -12 7 -18 3 -16 -10 -46 -10 -74 -1 -13 4 -23 4 -23 0 0 -4
-241 -7 -535 -7 -294 0 -535 4 -535 8 0 5 -5 5 -11 1 -6 -3 -176 -7 -378 -7
-319 -1 -368 -3 -379 -16 -8 -9 -11 -11 -8 -4 4 8 -3 11 -21 9 -15 -2 -29 -8
-31 -15 -3 -9 -7 -9 -18 0 -12 10 -13 9 -8 -5 4 -11 2 -15 -8 -11 -8 3 -18 -4
-24 -17 -6 -13 -9 -17 -7 -10 1 6 -2 12 -7 12 -6 0 -10 -6 -10 -13 0 -8 -10
-22 -22 -33 -12 -10 -18 -13 -14 -6 4 6 2 12 -3 12 -10 0 -16 -21 -12 -42 0
-5 -3 -8 -9 -8 -5 0 -10 6 -10 13 0 8 -3 7 -10 -3 -6 -9 -5 -17 1 -21 6 -3 1
-9 -10 -12 -14 -3 -19 -11 -16 -26 2 -12 0 -19 -6 -16 -8 5 -11 -1 -8 -21 0
-3 -8 -12 -18 -21 -10 -8 -12 -12 -5 -8 14 7 16 -4 2 -25 -6 -9 -5 -17 3 -22
9 -6 9 -10 0 -16 -9 -5 -11 -565 -12 -2311 0 -1266 -2 -2306 -5 -2309 -3 -3
-1 -11 5 -19 6 -7 8 -13 3 -13 -5 0 -8 -37 -7 -82 2 -67 -1 -83 -15 -94 -20
-15 22 -14 -1397 -15 -848 0 -1133 -3 -1144 -12 -12 -9 -13 -9 -7 1 5 9 -3 12
-28 12 -22 0 -36 -5 -36 -12 0 -9 -3 -9 -8 -2 -9 13 -82 13 -82 0 0 -6 -5 -5
-12 2 -8 8 -17 8 -31 1 -15 -8 -18 -8 -12 1 6 9 2 9 -14 1 -16 -9 -21 -9 -21
1 0 8 -3 9 -8 3 -8 -13 -1850 -14 -1869 -2 -6 4 -14 4 -17 -1 -3 -4 -40 -8
-83 -8 -43 1 -81 -3 -85 -9 -5 -6 -8 -5 -8 3 0 7 -5 10 -10 7 -6 -4 -7 -12 -3
-18 5 -9 3 -9 -8 0 -12 10 -20 9 -40 -5 -26 -18 -52 -25 -44 -12 3 5 0 12 -6
16 -8 4 -9 3 -5 -4 4 -7 2 -12 -5 -12 -8 0 -7 -5 2 -17 13 -15 12 -15 -9 -4
-21 11 -24 10 -29 -8 -4 -16 -9 -19 -18 -11 -10 8 -15 8 -21 -1 -4 -7 -3 -9 3
-6 6 4 13 0 16 -7 4 -10 0 -14 -13 -11 -13 3 -17 -1 -13 -11 3 -7 -2 -16 -10
-20 -9 -3 -13 -12 -10 -21 5 -12 3 -14 -8 -8 -11 7 -11 5 1 -10 9 -11 10 -16
3 -11 -8 4 -13 1 -13 -8 0 -9 -6 -16 -12 -16 -9 0 -8 -4 2 -10 12 -7 12 -10 1
-10 -7 0 -11 -6 -8 -15 4 -8 2 -17 -3 -20 -6 -4 -10 -11 -10 -16 0 -6 6 -7 13
-3 9 6 9 5 0 -7 -17 -21 -19 -4059 -2 -4091 6 -11 7 -18 1 -15 -5 4 -9 -6 -8
-22 1 -19 5 -26 11 -21 7 6 11 2 11 -10 0 -10 -3 -17 -6 -15 -4 2 -7 -3 -7
-11 0 -8 6 -13 13 -10 8 3 16 0 20 -6 4 -7 3 -8 -4 -4 -7 4 -12 2 -12 -3 0 -6
5 -11 11 -11 8 0 8 -4 0 -14 -9 -11 -7 -12 12 -9 26 5 43 -19 30 -40 -4 -8 -1
-7 9 1 13 10 17 10 22 -3 4 -10 14 -14 31 -11 14 3 31 -2 40 -10 12 -12 15
-12 15 -2 0 8 3 9 8 3 10 -16 54 -17 45 -2 -5 9 -2 8 9 0 12 -10 500 -13 2349
-13 1284 0 2339 0 2344 -1 6 0 27 0 47 1 20 1 46 -4 59 -10 16 -9 20 -9 14 0
-5 8 0 7 14 -2 12 -7 21 -17 21 -23 0 -5 5 -3 10 5 8 13 10 12 10 -2 0 -10 4
-18 8 -18 5 0 9 -7 9 -15 0 -8 -5 -15 -10 -15 -5 0 -4 -6 2 -14 8 -10 9 -16 1
-21 -7 -4 -7 -12 0 -25 7 -13 6 -20 -3 -23 -9 -4 -9 -6 0 -6 10 -1 13 -354 13
-1687 0 -927 2 -1690 5 -1694 3 -5 1 -11 -5 -15 -6 -4 -7 -12 -3 -18 4 -7 8
-303 9 -658 1 -356 4 -651 8 -658 4 -6 2 -11 -5 -11 -8 0 -8 -4 -1 -13 7 -8 7
-18 2 -27 -5 -9 -5 -19 2 -27 5 -7 8 -20 4 -28 -3 -9 -2 -13 4 -10 6 3 10 2
10 -4 0 -5 -6 -12 -12 -14 -7 -3 -3 -6 10 -6 12 -1 22 -6 22 -12 0 -5 -6 -7
-12 -3 -7 4 -10 4 -6 -1 4 -4 3 -14 -3 -21 -7 -8 -7 -14 1 -19 6 -4 10 -3 9 2
-4 20 3 19 31 -5 17 -15 30 -35 30 -45 0 -10 4 -16 9 -12 5 3 13 1 16 -5 4 -6
16 -10 28 -8 15 2 21 -2 19 -11 -3 -12 0 -12 12 -1 9 7 16 9 16 4 0 -9 133 -9
157 0 7 3 13 2 13 -2 0 -8 604 -6 626 2 8 3 14 2 14 -2 0 -8 604 -6 626 2 8 3
14 2 14 -2 0 -8 604 -6 626 2 8 3 14 2 14 -2 0 -11 264 -8 272 3 5 6 8 5 8 -3
0 -7 4 -10 10 -7 5 3 19 1 31 -6 16 -8 20 -8 14 1 -5 9 -2 9 11 3 17 -9 51
-10 79 -3 6 1 12 1 15 0 17 -6 50 -5 50 2 0 5 6 6 13 1 18 -11 137 -10 137 2
0 6 3 6 8 0 8 -12 41 -13 58 -3 6 4 14 4 18 0 11 -11 70 -8 78 3 5 7 8 6 8 -1
0 -9 65 -12 95 -4 6 1 12 1 15 0 17 -6 50 -5 50 2 0 5 6 6 13 1 18 -11 137
-10 137 2 0 6 3 6 8 0 8 -12 41 -13 58 -3 6 4 14 4 18 0 11 -11 70 -8 78 3 5
7 8 6 8 -1 0 -9 65 -12 95 -4 6 1 12 1 15 0 17 -6 50 -5 50 2 0 5 6 6 13 1 18
-11 107 -10 107 2 0 5 4 4 9 -3 9 -15 17 -15 42 -1 9 4 20 5 23 1 11 -11 86
-9 86 3 0 5 4 4 9 -3 11 -17 12 -18 37 -4 12 6 25 8 28 4 11 -11 86 -9 86 3 0
5 4 4 9 -3 11 -18 12 -18 38 -4 13 7 24 8 27 3 5 -8 27 -8 46 -1 3 1 10 1 15
0 39 -8 84 -7 79 2 -5 7 -2 8 6 3 20 -12 60 -12 60 0 0 6 3 7 8 0 9 -12 52
-13 71 -1 9 6 12 5 7 -2 -7 -12 20 -10 31 3 4 4 2 5 -6 0 -10 -6 -12 -4 -7 4
6 9 11 9 21 1 9 -8 15 -8 20 0 3 6 12 7 18 4 8 -5 8 -3 0 7 -7 7 -13 18 -13
24 0 5 4 3 10 -5 8 -12 10 -12 16 3 3 9 10 14 15 11 5 -3 9 0 9 6 0 6 5 8 12
4 7 -4 8 -3 4 4 -4 6 -13 9 -21 5 -8 -3 -15 0 -15 7 0 6 4 9 8 6 4 -2 14 -1
22 5 13 7 13 9 0 9 -9 1 -5 5 8 10 19 8 21 13 12 30 -9 16 -8 25 1 36 7 9 8
14 1 14 -11 0 -10 38 1 57 4 6 3 14 -3 18 -6 4 -7 11 -4 17 4 6 7 35 8 64 0
30 5 54 11 54 7 0 7 3 0 8 -5 4 -10 33 -10 65 0 31 5 57 10 57 6 0 4 4 -3 9
-8 4 -14 12 -14 16 0 4 6 12 14 16 7 5 9 9 3 9 -17 0 -8 200 10 213 7 4 7 10
0 15 -14 10 -15 52 -1 52 6 0 5 4 -3 9 -8 5 -10 14 -5 22 12 19 12 49 1 49 -5
0 -4 6 2 13 6 8 7 17 3 21 -11 11 -9 50 3 58 7 5 7 11 0 15 -14 11 -15 53 -1
53 6 0 5 4 -3 9 -8 5 -10 14 -5 22 12 19 12 49 1 49 -5 0 -4 6 2 14 7 8 8 17
3 20 -11 6 -9 36 3 55 5 10 4 12 -3 7 -8 -5 -12 1 -13 16 -4 115 -3 148 2 148
3 0 5 14 4 30 -1 17 3 30 9 30 6 0 5 4 -3 9 -8 5 -10 14 -5 22 12 19 12 49 1
49 -5 0 -4 6 2 13 6 8 7 17 3 21 -11 11 -9 50 3 58 7 5 7 11 0 15 -14 11 -15
53 -1 53 6 0 5 4 -3 9 -8 5 -10 14 -5 22 12 19 12 49 1 49 -5 0 -4 6 2 13 6 8
7 17 3 21 -11 11 -9 50 3 59 7 4 7 10 0 15 -14 10 -15 52 -1 52 6 0 5 4 -3 9
-13 8 -13 12 0 27 12 16 12 17 -1 9 -13 -8 -13 -7 -1 8 7 9 9 17 4 17 -5 0 -9
9 -10 20 -1 11 3 20 9 20 7 0 7 4 -1 13 -8 10 -7 17 1 25 7 7 8 12 2 12 -13 0
-12 53 1 62 7 5 6 8 0 8 -6 0 -11 9 -12 20 -1 11 3 20 9 20 7 0 7 4 -1 13 -8
10 -7 17 1 25 7 7 8 12 2 12 -13 0 -13 83 1 92 6 5 7 11 0 15 -14 11 -15 53
-1 53 6 0 5 4 -3 9 -8 5 -10 14 -5 22 12 19 12 49 1 49 -5 0 -4 6 2 13 6 8 7
17 3 21 -11 11 -9 50 3 58 7 5 7 11 0 15 -14 11 -15 53 -1 53 6 0 5 4 -3 9 -8
5 -10 14 -5 22 12 19 12 49 1 49 -5 0 -4 6 2 13 6 8 7 17 3 21 -11 11 -9 50 3
59 7 4 7 10 0 15 -6 4 -11 21 -13 37 -2 17 -12 36 -22 43 -14 10 -17 19 -10
36 4 13 4 29 0 37 -6 8 -4 16 3 21 9 6 9 8 -1 8 -8 0 -10 5 -6 12 11 17 12 48
3 54 -5 2 -4 15 1 28 4 13 4 29 0 37 -6 8 -4 16 3 21 9 6 8 8 -2 8 -9 0 -10 4
-5 13 9 11 10 31 4 50 -6 19 -6 33 2 44 5 6 4 14 -2 18 -8 5 -8 11 1 21 9 11
9 14 0 14 -9 0 -9 5 -1 20 6 11 7 20 2 20 -5 0 -9 7 -9 15 0 8 4 15 9 15 5 0
4 9 -2 19 -7 14 -6 21 3 24 7 3 5 6 -5 6 -12 1 -15 6 -11 18 4 11 3 14 -5 9
-9 -5 -10 -1 -4 16 9 27 8 188 -1 212 -4 10 -3 15 3 11 6 -3 10 -2 10 4 0 5
-5 13 -10 16 -7 4 -6 14 1 28 9 15 9 22 1 25 -7 2 -8 12 -4 25 9 26 8 107 -1
131 -4 10 -3 14 3 11 5 -3 8 4 7 15 -1 11 -5 20 -10 20 -5 0 -4 7 4 16 8 10 9
18 2 22 -6 4 -7 16 -3 27 4 11 3 30 -1 43 -6 14 -5 21 0 17 6 -3 9 4 8 15 -1
11 -5 20 -10 20 -5 0 -4 7 4 16 7 9 9 18 3 22 -11 9 -14 53 -2 46 4 -3 8 -1 8
5 0 5 -5 13 -10 16 -6 3 -7 14 -2 23 4 9 6 31 5 47 -4 41 -4 42 0 108 2 31 0
57 -3 57 -4 0 -7 7 -7 15 0 8 4 12 9 9 4 -3 8 -1 8 5 0 5 -5 13 -10 16 -7 4
-6 14 1 28 9 16 9 22 0 25 -6 2 -8 8 -5 14 8 13 11 168 3 168 -3 0 -6 7 -6 15
0 8 4 12 9 9 4 -3 8 -1 8 5 0 5 -5 13 -10 16 -6 4 -7 13 -1 23 13 25 13 25 2
55 -6 16 -7 26 -2 22 6 -3 9 4 8 15 -1 11 -5 20 -10 20 -5 0 -3 7 4 17 11 12
11 17 2 20 -8 3 -9 12 -3 28 5 12 6 26 3 29 -4 3 1 6 11 6 9 0 14 5 11 10 -3
6 0 10 8 10 8 0 18 7 21 16 3 8 10 12 16 9 5 -3 10 -1 10 6 0 8 4 8 15 -1 10
-9 15 -9 15 -1 0 7 13 9 35 6 21 -2 33 0 30 5 -4 6 3 6 17 1 13 -4 35 -5 50 0
15 4 30 4 33 0 4 -8 58 -6 82 3 8 3 10 -1 6 -12 -6 -14 -4 -15 8 -5 8 6 35 10
62 9 27 -1 47 2 47 9 0 6 3 7 8 0 4 -5 14 -10 22 -10 8 0 18 5 22 10 5 6 8 6
8 -1 0 -7 17 -9 45 -7 33 3 45 1 45 -9 0 -9 3 -9 8 -2 9 14 51 25 57 15 2 -4
25 -6 51 -4 36 4 44 2 38 -9 -6 -10 -4 -10 9 1 9 7 26 11 36 8 11 -3 22 0 25
7 3 7 5 7 5 0 1 -7 18 -9 46 -7 33 3 45 1 45 -9 0 -9 3 -9 8 -2 9 13 50 25 56
15 3 -4 41 -5 86 -3 57 2 87 -1 98 -10 13 -11 14 -11 8 0 -7 11 2 13 43 9 28
-3 49 -2 46 3 -3 4 4 6 15 3 11 -3 17 -10 13 -17 -3 -6 0 -6 8 2 7 6 31 12 54
12 23 0 47 -6 54 -12 8 -7 11 -8 8 -2 -9 16 212 17 232 1 12 -9 13 -9 7 1 -4
7 -1 12 8 12 9 0 16 -6 16 -12 0 -9 2 -10 8 -2 10 16 181 17 201 1 9 -7 12 -8
8 -1 -9 16 212 17 232 1 12 -9 13 -9 7 0 -5 9 1 12 23 9 17 -2 31 1 31 7 0 5
7 4 16 -4 13 -10 17 -10 25 2 5 8 9 10 9 4 0 -11 235 -13 247 -2 3 4 15 -1 26
-10 11 -10 18 -13 14 -7 -4 7 20 11 74 11 51 0 79 -4 79 -11 0 -6 4 -5 9 3 7
11 13 12 23 3 11 -9 17 -9 26 0 8 8 15 8 25 0 8 -7 17 -9 21 -5 12 13 48 14
40 1 -5 -8 -3 -8 7 -2 8 5 23 9 34 9 11 0 26 5 34 9 10 7 12 5 6 -4 -6 -9 -2
-10 15 -5 17 6 21 4 14 -6 -6 -11 -5 -12 7 -3 21 16 72 17 63 1 -6 -9 -4 -9 7
-1 20 15 60 15 78 1 10 -8 13 -8 8 -1 -4 8 4 13 23 16 16 2 27 1 24 -3 -2 -4
0 -10 6 -14 5 -3 10 -2 10 4 0 14 71 11 89 -3 11 -8 13 -8 8 1 -5 8 16 11 84
10 49 -2 95 1 102 5 6 4 20 -1 31 -10 11 -9 17 -12 13 -6 -8 15 145 15 155 0
5 -7 8 -7 8 -1 0 12 55 13 66 2 4 -4 13 -2 21 4 10 9 13 8 13 -2 0 -12 2 -12
9 -1 4 8 12 14 16 14 4 0 12 -6 16 -14 5 -7 9 -8 9 -3 0 12 49 13 66 2 6 -3
14 -3 18 0 11 12 70 11 85 -1 11 -8 13 -8 8 1 -9 15 44 13 55 -2 5 -6 8 -6 8
1 0 6 11 12 25 12 16 0 22 -5 18 -12 -4 -6 1 -5 10 3 10 8 20 11 23 8 3 -3 17
-2 31 4 18 6 22 6 17 -3 -5 -8 -2 -9 11 -5 9 4 25 2 33 -5 12 -10 14 -10 8 0
-4 6 -3 12 1 12 5 0 15 -6 22 -12 10 -11 11 -9 5 6 -6 15 -4 17 7 10 8 -4 52
-7 98 -6 56 2 89 -2 99 -10 12 -10 14 -10 8 -1 -9 17 72 15 93 -1 11 -8 13 -8
8 0 -5 8 14 11 63 11 46 0 67 -4 64 -11 -3 -6 0 -4 8 4 18 21 48 22 40 1 -4
-13 -3 -14 9 -5 19 15 230 15 223 0 -3 -6 1 -3 9 6 8 10 17 15 21 11 4 -4 13
-8 22 -9 13 -2 13 0 2 14 -7 9 -8 14 -4 10 5 -4 15 -3 23 4 11 9 12 7 7 -8 -5
-18 -5 -18 9 -2 8 10 17 15 20 11 4 -3 7 1 7 11 0 10 -5 14 -12 10 -7 -4 -8
-3 -4 5 6 9 12 9 24 -1 10 -7 14 -9 10 -4 -4 5 0 15 8 24 9 8 13 24 11 34 -4
14 -1 18 8 14 9 -3 12 0 8 9 -3 8 -10 12 -16 8 -6 -3 -7 -1 -3 6 4 6 11 9 16
6 5 -3 11 -1 15 5 3 5 -2 10 -12 10 -10 0 -14 4 -8 8 16 11 17 34 3 43 -9 6
-9 9 -1 9 9 0 12 75 11 299 0 164 2 304 6 309 3 6 0 13 -6 16 -11 5 -11 7 0
12 6 3 9 10 6 16 -6 9 -9 130 -4 153 1 6 1 15 0 20 -5 24 -1 895 4 904 3 5 0
12 -6 15 -11 5 -11 7 0 12 6 3 9 10 6 16 -8 13 -8 183 0 197 3 5 0 12 -6 14
-10 4 -9 8 2 16 8 6 11 11 5 11 -6 0 -10 75 -9 205 1 113 -3 208 -8 211 -4 3
-3 14 2 25 6 10 7 19 3 19 -11 0 -11 15 -13 937 -1 458 -5 831 -9 828 -4 -2
-8 2 -8 10 0 8 3 12 7 10 3 -2 6 5 6 16 0 11 -5 18 -13 15 -7 -3 -10 1 -6 10
3 7 0 14 -7 14 -6 0 -8 5 -5 10 4 6 11 7 17 4 7 -4 8 -2 4 5 -4 6 -12 9 -17 6
-5 -4 -9 -1 -9 5 0 6 -5 8 -12 4 -9 -5 -8 -2 1 9 12 15 12 17 -3 11 -9 -4 -18
0 -22 9 -3 9 -12 18 -20 21 -9 3 -12 1 -9 -4 3 -6 1 -10 -4 -10 -6 0 -11 6
-11 14 0 15 -24 28 -34 18 -9 -8 -36 -11 -35 -4 3 18 -2 26 -9 15 -6 -10 -14
-9 -34 1 -19 10 -29 11 -37 3 -8 -8 -11 -8 -11 0 0 6 -14 10 -31 9 -16 -1 -32
1 -35 6 -3 4 -13 4 -23 -2 -10 -5 -21 -6 -25 -2 -10 10 -66 9 -66 -1 0 -4 -6
-5 -12 0 -19 11 -68 10 -68 -1 0 -6 -5 -5 -12 2 -15 15 -31 16 -22 0 5 -7 3
-8 -7 -2 -21 13 -39 14 -39 2 0 -6 -10 -3 -22 8 -12 10 -18 13 -14 6 6 -10 -1
-12 -28 -9 -20 2 -36 0 -36 -6 0 -6 -5 -6 -12 1 -16 13 -20 13 -58 2 -18 -5
-32 -5 -35 1 -4 5 -13 5 -24 -1 -10 -5 -21 -6 -25 -3 -10 11 -116 10 -116 -1
0 -4 -7 -3 -15 4 -8 7 -15 8 -15 3 0 -5 -45 -9 -105 -8 -58 1 -108 -2 -111 -7
-3 -5 -11 -5 -17 0 -7 6 -34 9 -62 8 -27 -2 -56 2 -64 8 -12 9 -13 8 -6 -3 6
-11 3 -13 -15 -8 -13 3 -31 1 -39 -6 -10 -8 -13 -8 -8 -1 4 7 0 15 -9 18 -8 3
-13 2 -10 -3 3 -4 -44 -7 -104 -6 -77 2 -110 -1 -110 -9 0 -6 -4 -5 -9 3 -8
12 -12 12 -24 2 -9 -7 -18 -8 -21 -2 -3 5 -30 8 -59 7 -28 -2 -58 2 -66 8 -12
9 -13 8 -6 -3 6 -11 3 -13 -15 -8 -13 3 -31 1 -39 -6 -10 -8 -13 -8 -8 -1 4 7
0 15 -9 18 -8 3 -13 2 -10 -3 3 -4 -44 -7 -104 -6 -77 2 -110 -1 -110 -9 0 -6
-4 -5 -9 3 -8 12 -12 12 -24 2 -9 -7 -18 -8 -21 -2 -3 5 -30 8 -59 7 -28 -2
-58 2 -66 8 -12 9 -13 8 -6 -3 6 -11 3 -13 -15 -8 -13 3 -31 1 -39 -6 -10 -8
-13 -8 -8 -1 4 7 0 15 -9 18 -8 3 -13 2 -10 -3 7 -11 -116 -7 -134 4 -9 6 -11
4 -5 -5 5 -9 2 -10 -12 -6 -28 9 -98 10 -111 2 -7 -4 -12 -2 -12 4 0 7 -6 8
-19 0 -13 -7 -22 -7 -26 0 -4 7 -12 7 -25 0 -10 -6 -21 -6 -24 -2 -3 5 -29 7
-58 5 -29 -2 -57 -4 -63 -4 -5 0 -23 2 -38 6 -22 4 -27 3 -21 -7 6 -10 5 -10
-7 -1 -9 7 -20 9 -29 3 -10 -6 -21 -3 -34 8 -11 9 -16 11 -12 4 6 -10 -1 -12
-28 -9 -20 2 -37 -1 -40 -7 -3 -8 -5 -8 -5 0 -1 11 -49 10 -78 0 -6 -3 -14 -2
-17 2 -11 10 -36 11 -36 1 0 -6 -6 -7 -12 -2 -18 10 -68 11 -68 0 0 -4 -6 -5
-12 0 -19 11 -68 10 -68 -1 0 -6 -5 -5 -12 2 -15 15 -31 16 -22 0 5 -7 3 -8
-7 -2 -21 13 -39 14 -39 2 0 -6 -10 -3 -22 8 -12 10 -18 13 -14 6 6 -10 -1
-12 -28 -9 -22 3 -36 0 -36 -7 0 -7 -3 -7 -8 -1 -8 12 -55 19 -48 7 2 -4 -8
-7 -22 -6 -15 1 -27 3 -27 4 0 1 -8 3 -17 5 -10 2 -18 -1 -18 -6 0 -6 -6 -7
-12 -2 -18 10 -68 11 -68 0 0 -4 -6 -5 -12 0 -19 11 -68 10 -68 -1 0 -6 -5 -5
-12 2 -15 15 -31 16 -22 0 5 -7 3 -8 -7 -2 -21 13 -39 14 -39 2 0 -6 -10 -3
-22 8 -12 10 -18 13 -14 6 6 -10 -1 -12 -28 -9 -22 3 -36 0 -36 -7 0 -7 -3 -7
-8 -1 -8 12 -55 19 -48 7 2 -4 -8 -7 -22 -6 -15 1 -27 3 -27 4 0 1 -8 3 -17 5
-10 2 -18 -1 -18 -6 0 -6 -6 -7 -12 -2 -18 10 -68 11 -68 0 0 -4 -6 -5 -12 0
-19 11 -68 10 -68 -1 0 -6 -5 -5 -12 2 -15 15 -31 16 -22 0 5 -7 3 -8 -7 -2
-21 13 -39 14 -39 2 0 -6 -10 -3 -22 8 -12 10 -18 13 -14 6 6 -10 -1 -12 -28
-9 -22 3 -36 0 -36 -7 0 -7 -3 -7 -8 -1 -8 12 -55 19 -48 7 2 -4 -8 -7 -22 -6
-15 1 -27 3 -27 4 0 1 -8 3 -17 5 -10 2 -18 -1 -18 -6 0 -6 -6 -7 -12 -2 -18
10 -68 11 -68 0 0 -4 -6 -5 -12 0 -19 11 -68 10 -68 -1 0 -6 -4 -6 -11 1 -7 7
-21 8 -40 3 -16 -5 -31 -5 -34 -1 -2 5 -16 9 -30 9 -13 0 -23 -4 -20 -8 2 -3
-2 -7 -10 -7 -8 0 -11 5 -8 10 4 6 -1 8 -11 4 -10 -4 -33 -7 -52 -7 -26 0 -33
-3 -28 -12 5 -9 2 -9 -9 1 -9 7 -17 10 -17 5 0 -5 -6 1 -14 12 -11 15 -14 44
-12 105 2 46 -1 92 -6 103 -7 12 -7 16 0 12 7 -4 9 25 7 81 -1 49 2 94 7 101
7 8 7 12 0 12 -12 0 -10 78 3 99 6 10 4 12 -5 6 -10 -6 -12 -4 -7 7 3 9 0 21
-6 28 -8 9 -8 11 -1 7 8 -5 11 15 10 68 -1 42 3 75 8 75 6 0 2 6 -9 13 -13 10
-15 16 -6 21 6 4 9 11 6 16 -3 5 -1 11 5 15 6 4 5 13 -2 25 -9 14 -9 22 1 33
7 10 8 18 2 21 -5 4 -8 24 -6 47 3 29 1 38 -8 32 -9 -5 -9 -3 0 9 7 8 10 18 6
21 -3 4 -1 7 6 7 7 0 9 5 6 10 -4 6 -12 7 -18 3 -9 -5 -9 -3 -1 8 7 8 11 28
10 44 -2 17 2 33 8 37 7 5 7 8 1 8 -6 0 -10 50 -9 133 0 80 -4 138 -10 146 -8
11 -8 13 0 8 8 -5 11 15 10 71 -2 42 2 83 7 90 6 8 6 12 -1 12 -12 0 -10 78 3
99 6 10 4 12 -5 6 -10 -6 -12 -4 -7 7 3 9 0 21 -6 28 -7 7 -7 10 -1 7 7 -4 10
28 10 103 0 71 -4 106 -11 102 -5 -3 -4 1 2 10 7 8 10 18 6 21 -3 4 -1 7 6 7
7 0 9 5 6 10 -4 6 -12 7 -18 3 -9 -5 -9 -3 0 8 6 8 10 29 8 47 -1 19 2 32 9
32 8 0 8 3 0 8 -6 4 -10 23 -9 42 1 19 -2 43 -8 54 -6 12 -6 16 1 12 7 -4 9
25 7 81 -1 49 2 94 7 101 7 8 7 12 0 12 -12 0 -10 78 3 99 6 10 4 12 -5 6 -10
-6 -12 -4 -7 7 3 9 0 21 -6 28 -8 9 -8 11 -1 7 8 -5 11 15 10 68 -1 42 3 75 8
75 6 0 2 6 -9 13 -13 10 -15 16 -6 21 6 4 9 11 6 16 -3 5 -1 11 5 15 6 4 5 13
-2 25 -10 15 -10 22 -1 31 9 9 9 18 2 31 -7 13 -7 23 1 33 6 7 7 16 2 19 -10
6 -10 191 0 202 4 3 1 16 -6 28 -8 11 -13 38 -12 59 1 20 -1 37 -5 37 -3 0 -6
7 -6 15 0 8 3 15 7 15 7 0 4 59 -3 67 -3 3 -2 15 3 28 5 14 5 26 -3 34 -6 6
-7 11 -1 11 11 0 11 230 0 248 -4 7 -2 12 6 12 9 0 9 3 -2 10 -13 9 -13 10 0
10 9 0 11 3 5 8 -16 11 -19 45 -3 37 10 -6 11 -5 1 6 -7 7 -13 19 -13 27 0 8
5 10 13 6 9 -6 9 -5 0 7 -7 9 -8 20 -3 28 5 8 4 22 -3 32 -8 13 -7 21 2 33 10
11 10 20 3 29 -13 16 -13 29 1 46 9 11 9 13 0 8 -8 -5 -11 0 -10 13 1 11 6 20
12 20 5 0 4 4 -3 9 -17 11 -17 21 0 32 10 7 10 9 1 9 -7 0 -13 7 -13 15 0 8 6
15 13 15 9 0 8 3 -2 9 -11 7 -11 9 0 14 11 4 11 6 1 6 -8 1 -10 6 -5 14 11 18
13 38 2 31 -13 -7 -11 10 2 23 8 8 8 13 0 17 -6 4 -11 12 -11 17 0 6 4 8 8 5
5 -3 9 1 9 9 0 8 -4 12 -9 9 -12 -8 -10 10 3 23 8 8 8 13 0 17 -6 4 -11 15
-11 24 0 15 2 15 10 2 6 -9 10 -10 10 -3 0 6 -4 15 -10 18 -14 9 -12 45 3 45
7 0 8 3 2 8 -15 11 -17 32 -3 32 10 0 10 2 0 9 -8 4 -14 12 -14 16 0 4 6 12
14 16 10 7 10 9 1 9 -7 0 -13 7 -13 15 0 8 6 15 13 15 8 0 7 4 -3 10 -13 9
-13 10 0 10 9 0 11 3 5 8 -16 11 -19 45 -3 37 10 -6 11 -5 1 6 -7 7 -13 19
-13 27 0 8 5 10 13 6 9 -6 9 -5 0 7 -9 11 -9 19 -2 26 8 8 8 13 0 17 -6 4 -11
12 -11 17 0 6 4 8 8 5 5 -3 9 1 9 9 0 8 -4 12 -9 9 -11 -7 -10 3 3 28 8 15 8
19 0 14 -14 -9 -14 7 0 21 8 8 8 13 0 17 -6 4 -11 12 -11 17 0 6 6 7 13 3 8
-5 8 -2 -2 9 -11 14 -11 17 0 17 12 0 12 2 1 9 -8 4 -14 12 -14 16 0 4 6 12
14 16 10 7 10 9 1 9 -7 0 -13 5 -13 11 0 5 6 7 13 3 9 -6 9 -5 0 7 -19 23 -19
25 -3 44 9 11 10 16 3 11 -7 -4 -13 -3 -13 3 0 5 4 13 10 16 6 4 5 13 -2 25
-10 15 -10 22 0 32 15 15 16 28 1 28 -5 0 -7 -5 -3 -12 4 -6 3 -8 -3 -5 -13 8
-4 59 11 69 7 5 4 8 -7 8 -10 0 -15 5 -12 10 4 6 11 7 17 4 7 -4 8 -2 4 5 -4
6 -12 8 -18 5 -6 -4 -8 -1 -6 7 3 8 11 13 17 11 7 -1 10 2 6 7 -3 6 -13 7 -23
4 -15 -6 -15 -4 -4 9 11 14 10 17 -10 24 -13 4 -26 7 -30 6 -4 -1 -5 8 -3 19
4 21 4 21 -16 3 -15 -14 -18 -14 -14 -3 7 19 -20 43 -40 36 -8 -4 -17 -2 -20
3 -4 6 -14 6 -27 -1 -14 -7 -18 -7 -14 0 5 7 -270 10 -910 11 -504 0 -919 2
-924 5 -4 2 -10 2 -12 -1z m2009 -90 c-3 -3 -12 -4 -19 -1 -8 3 -5 6 6 6 11 1
17 -2 13 -5z"/>
<path d="M9755 22470 c-3 -5 -1 -10 4 -10 6 0 11 5 11 10 0 6 -2 10 -4 10 -3
0 -8 -4 -11 -10z"/>
<path d="M5297 22433 c-4 -3 -7 -11 -7 -17 0 -6 5 -5 12 2 6 6 9 14 7 17 -3 3
-9 2 -12 -2z"/>
<path d="M19420 21848 c0 -5 -3 -7 -7 -7 -22 4 -33 -2 -27 -13 5 -9 2 -9 -9 1
-15 12 -21 9 -18 -11 0 -5 -7 -8 -16 -8 -15 0 -16 -2 -3 -10 13 -8 12 -10 -3
-10 -10 0 -20 -7 -23 -15 -4 -8 -11 -12 -17 -8 -6 4 -8 0 -4 -10 4 -10 2 -16
-6 -14 -7 1 -11 -4 -9 -11 1 -8 -1 -11 -6 -8 -5 3 -19 -6 -30 -19 -12 -14 -26
-25 -32 -25 -5 0 -10 -7 -10 -15 0 -8 -7 -15 -16 -15 -8 0 -12 -4 -9 -10 3 -5
1 -10 -5 -10 -6 0 -8 -5 -4 -12 4 -6 3 -8 -4 -4 -6 3 -16 0 -24 -7 -7 -7 -21
-16 -32 -20 -10 -4 -16 -13 -13 -21 4 -10 0 -14 -13 -11 -21 4 -55 -29 -45
-45 3 -6 3 -10 -2 -9 -21 4 -33 -2 -33 -16 0 -8 -5 -14 -11 -12 -6 1 -14 -4
-17 -12 -3 -9 0 -11 8 -6 8 5 11 4 6 -3 -4 -6 -14 -8 -23 -5 -11 4 -14 3 -9
-5 4 -7 1 -12 -8 -12 -9 0 -16 -7 -16 -15 0 -9 -14 -24 -30 -33 -17 -9 -28
-23 -25 -29 2 -7 1 -12 -3 -12 -20 3 -32 -3 -32 -16 0 -8 -5 -14 -11 -12 -6 1
-14 -4 -17 -12 -3 -9 0 -11 8 -6 9 5 11 4 6 -4 -4 -6 -11 -9 -16 -6 -13 8 -62
-36 -56 -52 3 -8 1 -11 -4 -8 -12 8 -93 -71 -86 -84 4 -5 1 -13 -5 -17 -8 -5
-9 -3 -4 6 5 8 3 11 -6 8 -8 -3 -13 -12 -13 -21 1 -9 -2 -15 -6 -12 -4 2 -16
-3 -26 -11 -10 -9 -13 -12 -5 -8 9 5 12 3 7 -4 -4 -7 -14 -12 -22 -12 -8 0
-14 -5 -14 -11 0 -5 6 -7 13 -3 7 4 9 3 4 -2 -5 -5 -13 -10 -18 -10 -5 -1 -13
-2 -19 -3 -5 0 -9 -7 -7 -13 1 -7 -4 -12 -12 -10 -8 2 -11 -3 -8 -11 3 -8 0
-14 -6 -13 -7 0 -12 -3 -12 -7 0 -5 -13 -15 -30 -23 -26 -12 -26 -13 -5 -9 19
4 17 1 -10 -12 -19 -10 -39 -28 -46 -40 -6 -13 -14 -20 -17 -16 -4 3 -8 1 -8
-5 -3 -27 -4 -31 -13 -39 -5 -5 -6 -2 -1 6 5 9 3 12 -6 9 -8 -3 -13 -12 -13
-21 1 -9 -2 -15 -6 -12 -12 7 -50 -31 -51 -51 0 -12 -3 -14 -6 -6 -4 10 -9 9
-24 -4 -10 -9 -19 -23 -19 -31 0 -8 -4 -11 -10 -8 -5 3 -11 1 -11 -4 -1 -6 -2
-15 -3 -20 0 -5 -5 -13 -10 -18 -5 -5 -6 -2 -1 6 5 9 3 12 -6 9 -8 -3 -13 -12
-13 -21 1 -9 -2 -15 -6 -12 -14 9 -55 -36 -52 -58 2 -18 1 -19 -8 -7 -9 13
-11 13 -19 0 -5 -8 -7 -18 -4 -24 3 -5 1 -6 -6 -2 -11 7 -44 -17 -36 -26 3 -3
-6 -11 -20 -18 -14 -7 -25 -19 -25 -26 0 -7 -5 -16 -12 -20 -7 -5 -9 -2 -4 7
4 8 1 5 -8 -5 -8 -10 -13 -23 -10 -27 3 -5 -2 -6 -10 -3 -16 6 -40 -28 -28
-40 3 -4 -1 -4 -10 -1 -16 7 -62 -41 -53 -55 3 -4 -3 -7 -13 -6 -9 0 -16 -5
-14 -11 1 -7 -4 -13 -12 -13 -8 0 -19 -12 -24 -27 -6 -16 -11 -22 -11 -14 -1
19 -41 -16 -41 -36 0 -8 -4 -11 -10 -8 -5 3 -11 1 -11 -4 -1 -6 -2 -15 -3 -20
0 -5 -5 -13 -10 -18 -5 -5 -6 -2 -1 6 5 9 3 12 -6 9 -8 -3 -13 -12 -13 -21 1
-9 -2 -15 -6 -12 -12 7 -50 -31 -51 -51 0 -12 -3 -14 -6 -6 -4 10 -9 9 -24 -4
-10 -9 -19 -23 -19 -31 0 -8 -4 -12 -9 -9 -5 4 -14 -6 -19 -21 -6 -16 -11 -22
-11 -15 -1 7 -6 10 -11 7 -6 -4 -8 -11 -5 -16 4 -5 2 -9 -3 -9 -14 0 -48 -33
-55 -54 -4 -10 -13 -16 -21 -13 -8 3 -17 -1 -20 -9 -4 -10 -2 -12 6 -8 7 4 8
3 4 -4 -4 -7 -13 -12 -19 -12 -13 0 -67 -57 -67 -70 0 -5 -5 -12 -12 -16 -7
-5 -9 -2 -4 7 4 8 1 5 -8 -5 -8 -10 -13 -23 -9 -29 3 -6 1 -7 -5 -3 -7 4 -12
2 -12 -4 0 -6 -5 -8 -12 -4 -8 5 -9 2 -5 -10 4 -9 3 -15 -2 -12 -4 3 -17 -2
-27 -10 -10 -9 -12 -13 -4 -9 16 7 1 -7 -37 -33 -10 -7 -11 -9 -3 -5 13 6 13
5 1 -10 -8 -10 -16 -15 -18 -13 -10 10 -64 -57 -58 -71 4 -12 2 -13 -7 -6 -9
8 -19 5 -33 -10 -11 -11 -14 -16 -6 -12 9 5 12 4 7 -3 -4 -7 -14 -12 -22 -12
-13 0 -19 -13 -15 -34 1 -5 -6 -3 -15 5 -12 9 -15 9 -10 2 4 -8 2 -13 -5 -13
-7 0 -10 -3 -6 -6 9 -9 -54 -74 -66 -67 -6 4 -8 0 -4 -10 4 -11 2 -14 -9 -10
-9 3 -14 0 -12 -8 2 -7 -3 -14 -9 -15 -27 -3 -28 -5 -13 -14 8 -5 10 -10 4
-10 -17 0 -95 -81 -88 -91 3 -5 0 -8 -8 -7 -8 2 -12 -5 -11 -17 1 -11 0 -14
-3 -7 -8 18 -22 15 -29 -8 -4 -11 -11 -18 -16 -15 -5 4 -9 3 -9 -2 0 -4 -16
-25 -35 -47 -19 -21 -35 -42 -35 -48 0 -5 -4 -7 -9 -4 -9 6 -26 -22 -23 -36 1
-4 -6 -4 -16 -1 -9 3 -14 3 -10 -2 4 -4 -6 -18 -23 -32 -16 -14 -27 -29 -24
-34 4 -5 -1 -6 -9 -3 -10 4 -16 1 -16 -9 0 -8 -7 -18 -16 -21 -8 -3 -12 -10
-9 -16 4 -6 -1 -7 -11 -3 -11 4 -15 2 -11 -4 3 -5 -5 -16 -18 -23 -14 -7 -25
-16 -25 -20 0 -11 -89 -98 -95 -92 -5 5 -9 -14 -6 -30 0 -4 -6 -5 -14 -2 -8 4
-15 1 -15 -4 0 -6 -15 -25 -32 -43 -18 -18 -26 -28 -18 -23 9 5 4 -1 -10 -14
-16 -15 -19 -20 -7 -16 9 3 17 1 17 -5 0 -6 -5 -11 -10 -11 -14 0 -10 -91 4
-109 6 -8 11 -17 11 -20 0 -3 4 -5 8 -3 5 1 6 -2 2 -8 -3 -5 1 -13 9 -16 8 -3
18 -14 21 -25 4 -10 13 -19 21 -19 8 0 14 -5 14 -10 0 -6 13 -18 29 -28 28
-17 31 -21 31 -44 0 -6 3 -8 7 -5 3 4 19 -6 34 -22 15 -16 30 -27 33 -23 3 3
6 -2 6 -12 0 -9 7 -19 15 -22 8 -3 17 -14 20 -25 4 -10 9 -18 13 -18 17 3 32
-2 30 -8 -2 -5 5 -19 15 -33 9 -13 17 -20 17 -15 0 5 7 -1 16 -13 8 -12 20
-19 26 -16 6 4 8 3 5 -3 -7 -11 27 -43 45 -43 6 0 9 -3 5 -6 -7 -7 70 -84 84
-84 6 0 8 -4 5 -9 -6 -8 17 -33 25 -28 2 1 3 0 2 -2 -4 -7 22 -29 30 -24 4 2
7 -1 7 -7 0 -8 71 -82 162 -168 4 -4 20 -22 34 -40 14 -17 31 -29 36 -25 6 3
8 2 5 -4 -3 -5 36 -51 87 -101 52 -50 91 -93 88 -96 -3 -3 2 -6 12 -6 9 0 14
-4 11 -10 -3 -5 -1 -10 5 -10 6 0 35 -25 65 -55 29 -30 51 -55 49 -55 -3 0 9
-12 28 -27 39 -33 88 -85 88 -95 0 -5 5 -8 10 -8 11 0 60 -45 60 -55 0 -9 36
-41 55 -48 10 -4 16 -10 13 -13 -7 -6 91 -104 104 -104 6 0 8 -3 5 -7 -4 -3 7
-14 23 -24 17 -11 30 -25 30 -32 0 -8 11 -20 25 -27 13 -7 23 -16 22 -19 -2
-3 10 -18 25 -33 15 -15 28 -25 28 -22 0 3 6 -1 14 -8 8 -7 12 -16 9 -20 -2
-5 -1 -8 4 -8 12 0 203 -188 203 -200 0 -5 5 -10 10 -10 6 0 25 -16 43 -36 18
-20 40 -44 50 -53 65 -57 137 -130 137 -140 0 -6 4 -11 8 -11 12 0 230 -218
224 -224 -3 -3 1 -6 8 -6 14 0 50 -37 50 -52 0 -4 5 -8 11 -8 6 0 17 -7 25
-15 9 -8 13 -15 10 -15 -3 0 13 -17 36 -37 23 -21 45 -37 50 -36 4 2 7 0 6 -5
-4 -10 144 -158 155 -154 5 1 6 -2 3 -7 -3 -5 17 -29 44 -54 28 -25 50 -50 50
-56 0 -6 4 -11 10 -11 13 0 150 -138 150 -151 0 -6 3 -8 8 -6 4 3 13 -1 20 -9
7 -8 9 -14 5 -15 -4 0 0 -4 10 -8 10 -4 19 -11 20 -16 3 -12 46 -55 56 -55 10
0 61 -57 61 -69 0 -5 8 -12 18 -15 11 -4 25 -17 32 -31 7 -14 20 -27 29 -30 9
-3 25 -17 36 -32 11 -15 29 -34 39 -42 11 -9 40 -37 66 -63 26 -27 53 -48 59
-48 6 0 12 -6 12 -12 1 -7 2 -15 2 -18 1 -8 57 -59 57 -52 0 4 11 -10 25 -30
28 -41 25 -60 -12 -95 -13 -13 -20 -23 -16 -23 4 0 -4 -8 -20 -18 -15 -10 -24
-22 -20 -25 3 -4 1 -7 -5 -7 -6 0 -30 -23 -52 -51 -22 -28 -40 -48 -40 -45 0
4 -16 -9 -35 -28 -19 -20 -35 -32 -35 -28 0 3 -8 -5 -17 -18 -9 -14 -23 -29
-30 -33 -7 -5 -10 -13 -7 -19 4 -7 2 -8 -5 -4 -6 4 -14 0 -17 -8 -3 -9 -13
-16 -21 -16 -13 0 -13 -2 -2 -17 11 -13 11 -15 1 -9 -13 8 -52 -27 -52 -46 0
-4 -7 -8 -15 -8 -8 0 -15 -5 -15 -11 0 -5 -4 -7 -10 -4 -5 3 -10 -1 -10 -10 0
-8 -7 -18 -15 -21 -8 -4 -15 -12 -15 -20 0 -8 -7 -14 -15 -14 -8 0 -15 -8 -15
-17 0 -14 -2 -15 -9 -5 -6 10 -10 7 -15 -12 -3 -14 -10 -25 -14 -24 -11 4 -52
-35 -52 -49 0 -7 -3 -12 -7 -12 -23 4 -31 -3 -28 -22 3 -15 0 -19 -10 -15 -10
4 -20 -5 -30 -27 -11 -25 -14 -26 -9 -7 4 21 3 22 -6 8 -6 -10 -11 -20 -10
-23 1 -12 -36 -41 -48 -37 -8 3 -10 -2 -6 -14 4 -11 3 -16 -1 -11 -5 4 -17 -5
-27 -20 -10 -16 -18 -25 -18 -20 0 11 -36 -27 -43 -47 -4 -10 -13 -16 -22 -13
-8 4 -16 -2 -20 -14 -4 -10 -11 -19 -16 -19 -5 0 -9 -7 -9 -16 0 -9 -5 -12
-12 -8 -7 5 -9 2 -5 -9 4 -11 2 -14 -9 -10 -9 3 -14 -1 -14 -13 0 -9 -3 -15
-6 -12 -11 12 -46 -33 -39 -50 5 -14 4 -15 -6 -5 -19 19 -32 16 -26 -6 3 -15
1 -18 -11 -14 -11 5 -14 2 -9 -10 4 -11 2 -14 -9 -10 -9 3 -14 -1 -14 -12 0
-9 -4 -14 -8 -11 -10 6 -42 -29 -42 -45 0 -5 -5 -7 -11 -4 -6 4 -13 -3 -16
-15 -4 -17 -8 -19 -15 -8 -7 9 -8 7 -5 -9 3 -15 1 -20 -9 -16 -9 3 -14 -2 -14
-13 0 -9 -3 -15 -6 -12 -6 7 -44 -27 -45 -39 0 -5 -7 -12 -15 -16 -8 -5 -12
-12 -9 -18 4 -5 -2 -6 -11 -2 -12 4 -15 3 -10 -5 4 -7 3 -12 -3 -12 -15 0 -91
-72 -85 -81 3 -5 -2 -9 -11 -9 -11 0 -15 -5 -12 -14 4 -10 1 -13 -8 -10 -7 3
-18 -4 -25 -15 -6 -12 -18 -21 -26 -21 -9 0 -14 -6 -11 -13 3 -7 -10 -23 -29
-36 -19 -13 -31 -27 -28 -32 3 -5 0 -9 -5 -9 -6 0 -20 -9 -31 -20 -11 -11 -18
-20 -15 -20 3 0 -3 -8 -12 -19 -10 -10 -22 -18 -28 -17 -5 1 -9 -7 -9 -17 2
-14 -1 -15 -12 -6 -11 9 -14 8 -14 -5 0 -9 -4 -16 -10 -16 -5 0 -10 -7 -10
-17 0 -9 -3 -14 -6 -11 -9 9 -56 -40 -49 -51 3 -7 0 -8 -9 -5 -11 4 -16 0 -16
-11 0 -9 -3 -14 -7 -12 -5 3 -27 -14 -50 -38 -29 -30 -38 -46 -31 -53 8 -8 5
-9 -11 -5 -15 4 -21 1 -21 -12 0 -11 -5 -15 -14 -12 -9 4 -17 -2 -21 -14 -4
-10 -11 -19 -16 -19 -5 0 -9 -6 -9 -14 0 -8 -5 -18 -12 -22 -7 -5 -8 -3 -3 7
8 12 6 12 -8 1 -9 -8 -19 -22 -22 -33 -4 -11 -11 -17 -16 -14 -5 4 -9 1 -9 -5
0 -6 -5 -8 -12 -4 -7 5 -9 0 -6 -14 4 -14 2 -19 -7 -16 -6 3 -20 -8 -30 -23
-10 -15 -27 -34 -37 -42 -11 -7 -17 -19 -14 -27 3 -8 0 -13 -7 -11 -7 1 -11
-4 -9 -11 1 -8 -2 -11 -9 -7 -6 4 -24 -7 -40 -24 -16 -18 -29 -29 -29 -26 0 4
-7 0 -15 -9 -8 -8 -15 -20 -15 -26 0 -6 -5 -8 -12 -4 -7 5 -9 2 -5 -9 4 -11 2
-14 -8 -10 -9 3 -18 -3 -23 -17 -4 -12 -11 -21 -15 -20 -13 1 -37 -27 -29 -35
4 -4 2 -5 -4 -3 -17 5 -116 -101 -107 -115 4 -7 0 -6 -10 2 -17 13 -23 6 -18
-22 0 -4 -2 -6 -6 -6 -20 3 -34 -2 -28 -11 3 -5 -1 -10 -9 -10 -8 0 -13 -6
-10 -13 2 -7 -9 -21 -26 -30 -17 -10 -28 -23 -24 -28 3 -5 2 -8 -3 -7 -11 3
-89 -72 -85 -83 1 -5 -3 -9 -8 -9 -15 0 -86 -70 -82 -81 1 -5 -2 -9 -6 -9 -17
0 -54 -39 -47 -49 3 -6 0 -9 -8 -6 -8 4 -24 -9 -39 -30 -14 -20 -30 -37 -34
-37 -5 0 -8 -4 -6 -10 1 -5 -2 -6 -8 -3 -7 4 -14 -2 -17 -14 -3 -11 -9 -18
-14 -15 -5 3 -9 0 -9 -6 0 -6 -11 -16 -25 -22 -14 -6 -25 -17 -25 -24 0 -6 -7
-14 -15 -18 -8 -3 -15 -12 -15 -20 0 -8 -5 -18 -12 -22 -7 -5 -8 -2 -3 7 4 8
-6 -1 -24 -19 -17 -18 -31 -37 -31 -42 0 -5 -7 -7 -15 -4 -9 4 -15 0 -15 -8 0
-7 -9 -20 -20 -28 -11 -8 -20 -20 -20 -27 0 -7 -6 -12 -12 -11 -7 2 -12 -3
-10 -10 1 -8 -2 -11 -8 -7 -5 3 -13 -1 -16 -9 -3 -9 -11 -13 -17 -9 -6 4 -8 0
-4 -11 4 -10 3 -15 -3 -11 -6 3 -10 1 -10 -5 0 -6 -4 -8 -10 -5 -5 3 -10 -1
-10 -10 0 -9 -9 -19 -20 -22 -11 -3 -20 -14 -20 -25 0 -10 -4 -16 -10 -13 -5
3 -10 1 -10 -4 0 -6 -7 -11 -15 -11 -8 0 -15 -5 -15 -11 0 -5 5 -7 10 -4 6 3
10 4 10 0 0 -3 -12 -10 -26 -15 -14 -6 -22 -14 -19 -20 3 -5 1 -10 -5 -10 -6
0 -8 -5 -4 -12 4 -6 3 -8 -2 -5 -5 3 -21 -4 -34 -15 -14 -11 -18 -16 -10 -12
8 4 2 -5 -13 -19 -16 -15 -25 -32 -21 -39 4 -6 3 -9 -2 -6 -5 3 -20 -6 -34
-20 -14 -13 -18 -21 -10 -17 8 4 5 -2 -8 -12 -18 -15 -20 -21 -10 -32 10 -11
10 -12 0 -7 -9 6 -12 -4 -10 -38 0 -25 6 -46 12 -46 7 0 7 -3 1 -8 -15 -10
-18 -35 -4 -26 9 5 10 2 6 -9 -3 -10 -2 -17 3 -17 6 0 10 -7 10 -15 0 -8 7
-15 16 -15 8 0 12 -5 9 -10 -3 -5 -1 -10 5 -10 6 0 8 -4 5 -10 -3 -5 -2 -10 3
-10 4 0 32 -22 62 -50 29 -27 58 -46 64 -43 6 4 5 -1 -3 -10 -13 -17 -6 -23
22 -18 4 0 7 -9 7 -21 0 -17 3 -19 9 -10 6 10 10 9 14 -7 3 -12 11 -20 18 -19
7 2 15 -6 17 -17 2 -11 13 -27 23 -36 10 -9 16 -19 12 -23 -3 -3 -2 -6 3 -6
13 0 64 -45 64 -57 0 -13 46 -55 78 -70 15 -7 18 -11 8 -8 -16 5 -17 3 -6 -10
7 -9 20 -13 28 -10 10 3 12 0 8 -10 -3 -10 0 -15 11 -15 9 0 14 -3 10 -6 -7
-7 38 -54 52 -54 5 0 13 -9 16 -20 4 -11 10 -18 15 -15 5 3 11 -4 15 -15 4
-11 19 -28 33 -38 38 -23 52 -39 45 -46 -4 -3 1 -6 11 -6 11 0 14 -4 10 -12
-5 -8 -2 -9 10 -5 9 4 15 3 12 -2 -7 -11 33 -53 44 -46 6 4 7 -2 3 -11 -5 -14
-3 -16 11 -11 11 4 15 3 10 -4 -7 -11 28 -49 46 -49 5 0 10 -7 10 -16 0 -10 6
-14 14 -11 10 4 13 1 9 -8 -3 -9 4 -18 20 -24 14 -5 29 -16 33 -23 5 -9 2 -8
-12 2 -18 14 -18 14 -5 -3 8 -10 20 -16 27 -13 8 3 11 0 7 -10 -5 -13 8 -19
30 -15 5 1 6 -3 2 -8 -6 -11 29 -51 46 -51 5 0 8 -4 5 -9 -3 -5 1 -15 10 -22
13 -10 17 -10 25 2 8 10 9 8 4 -8 -5 -17 -2 -23 9 -23 9 0 16 -5 16 -11 0 -13
30 -44 31 -32 0 4 5 -3 10 -16 6 -15 14 -21 25 -17 8 3 12 2 9 -4 -3 -6 -1
-10 6 -10 7 0 10 -3 7 -6 -6 -6 27 -44 38 -44 3 0 17 -9 31 -20 14 -11 22 -20
18 -20 -5 0 -18 8 -29 17 -15 13 -14 10 3 -10 14 -15 30 -27 37 -27 7 0 16 -9
19 -20 6 -18 17 -25 38 -21 5 1 6 -3 2 -9 -7 -12 66 -90 84 -90 6 0 11 -7 11
-16 0 -10 6 -13 18 -10 12 4 19 1 19 -8 0 -9 -5 -12 -10 -9 -6 3 -7 1 -3 -5 4
-7 14 -12 22 -12 8 0 12 -4 9 -10 -3 -5 1 -10 10 -10 10 0 13 -5 9 -12 -5 -8
-2 -9 9 -5 9 3 16 3 15 -1 -3 -14 14 -42 22 -37 5 3 11 -3 14 -13 4 -10 19
-30 34 -43 l27 -24 -25 30 c-24 29 -24 29 -1 10 12 -11 29 -32 37 -47 8 -15
23 -29 34 -33 11 -4 18 -11 15 -16 -4 -5 -1 -10 4 -10 6 -1 17 -2 24 -3 6 -1
11 -9 9 -19 -2 -9 2 -18 8 -18 5 -1 15 -2 22 -3 6 0 13 -8 15 -16 4 -13 3 -13
-6 0 -8 11 -11 12 -11 2 0 -8 9 -16 20 -19 11 -3 20 -11 20 -18 0 -20 37 -48
52 -39 10 6 10 5 0 -9 -12 -14 -11 -16 7 -12 14 2 18 -1 14 -11 -5 -14 6 -18
37 -15 13 2 13 1 0 -8 -12 -8 -5 -19 38 -60 29 -27 52 -55 52 -62 0 -8 3 -9
13 0 16 13 28 5 20 -15 -4 -12 7 -19 29 -15 4 0 5 -5 2 -12 -2 -7 10 -26 27
-41 25 -22 33 -25 40 -15 5 8 9 9 9 3 0 -5 -6 -16 -12 -23 -10 -11 -10 -13 0
-7 6 4 12 2 12 -4 0 -7 7 -10 15 -6 8 3 14 2 14 -2 -3 -20 2 -32 14 -32 8 0
24 -12 38 -27 l24 -28 -30 25 -30 25 25 -28 c14 -17 30 -25 39 -22 9 3 12 3 9
-1 -4 -3 1 -14 10 -23 11 -10 12 -12 2 -6 -13 9 -13 8 -1 -8 8 -10 20 -16 28
-13 8 3 11 1 8 -4 -3 -6 -1 -10 5 -10 6 0 9 -4 6 -9 -3 -4 4 -17 17 -27 21
-19 21 -19 7 1 -9 13 -10 16 -1 8 7 -6 19 -22 25 -35 7 -12 18 -22 24 -21 11
3 16 -10 13 -29 0 -5 3 -7 8 -5 5 1 17 -7 26 -18 9 -11 13 -14 9 -6 -5 9 -3
12 4 7 7 -4 12 -14 12 -23 0 -9 6 -13 15 -9 8 3 14 2 14 -2 -3 -18 2 -32 12
-32 15 0 39 -26 32 -34 -4 -3 1 -6 11 -6 9 0 14 -5 11 -10 -3 -5 1 -10 9 -10
8 0 23 -11 34 -25 11 -13 22 -21 26 -17 4 3 4 -2 0 -13 -6 -14 -4 -17 9 -12
10 4 21 -3 32 -21 l16 -27 -20 24 c-12 13 -21 19 -21 14 0 -13 34 -43 49 -43
7 0 9 -5 5 -12 -5 -7 -2 -9 9 -5 12 4 14 2 10 -10 -5 -13 -2 -15 11 -10 12 5
16 3 13 -5 -2 -7 8 -19 22 -26 14 -7 17 -10 7 -7 -19 6 -19 5 -2 -14 9 -10 31
-25 47 -31 16 -7 27 -16 24 -20 -5 -8 43 -56 53 -52 4 1 7 -1 7 -5 0 -17 17
-33 28 -27 7 4 9 4 5 0 -9 -11 33 -57 45 -49 6 3 7 1 3 -6 -4 -6 0 -14 8 -17
9 -3 13 -11 9 -18 -4 -6 2 -4 13 4 10 8 16 11 12 6 -9 -11 34 -57 49 -52 7 3
13 -1 13 -9 0 -16 15 -18 109 -17 64 1 85 8 75 23 -4 8 -3 9 4 5 7 -4 22 2 34
13 12 12 26 21 30 21 5 0 6 5 2 12 -4 6 -3 8 4 4 11 -7 92 66 92 83 0 5 5 13
12 17 7 5 8 3 3 -7 -5 -8 7 2 26 21 20 19 34 38 32 43 -2 4 0 7 5 7 4 0 26 16
48 35 21 19 42 35 46 35 5 0 7 3 7 8 -3 19 2 33 10 28 11 -7 33 18 24 27 -3 4
0 7 7 7 13 0 118 104 119 118 1 4 6 8 11 8 6 1 15 2 21 3 5 0 8 5 4 10 -3 5
-1 12 5 16 6 4 8 11 5 16 -3 5 2 6 11 2 12 -4 15 -3 10 5 -4 7 -3 12 3 12 15
0 121 106 121 121 0 7 3 9 6 6 4 -3 25 14 48 40 22 25 49 53 60 62 55 47 151
146 148 154 -1 5 1 6 6 3 12 -7 54 33 47 44 -3 5 0 12 6 16 8 4 9 3 5 -4 -14
-23 10 -12 37 18 16 17 25 35 21 41 -4 7 -3 9 3 6 13 -8 65 42 57 55 -4 6 -3
8 3 5 12 -7 56 27 47 36 -3 3 4 8 15 12 12 3 19 11 16 16 -4 5 -1 9 5 9 6 0 8
5 5 10 -4 6 -3 10 2 9 22 -4 32 2 27 16 -5 11 -2 13 12 8 11 -4 15 -3 11 4 -4
6 6 19 21 29 33 22 56 44 45 44 -4 0 7 9 25 20 18 11 31 24 28 29 -3 5 2 15
11 22 14 12 16 12 8 0 -6 -10 -4 -12 4 -7 7 5 10 15 7 23 -3 8 -2 12 3 9 4 -3
17 2 27 10 10 9 13 13 7 9 -28 -14 -11 4 23 24 19 12 33 25 29 31 -3 5 6 17
20 26 13 9 22 21 18 27 -3 5 -2 7 4 4 12 -8 65 41 58 53 -4 6 2 7 11 3 12 -4
15 -3 10 6 -5 8 -1 14 13 18 20 5 26 15 22 37 -1 5 4 6 11 3 15 -5 40 17 30
27 -3 4 4 9 16 13 12 3 19 9 16 14 -3 5 0 9 6 9 6 0 8 4 5 10 -4 6 1 7 11 3
11 -4 15 -3 11 4 -4 6 9 20 29 32 19 12 33 25 29 31 -3 5 7 17 22 27 30 19 59
53 56 65 -2 4 4 5 11 2 16 -6 40 29 28 41 -4 3 -2 6 3 5 22 -5 33 1 38 21 3
12 10 18 15 15 10 -6 27 22 23 37 -1 5 2 6 7 3 12 -7 64 43 57 54 -3 6 1 7 10
4 10 -4 15 -2 13 7 -2 7 3 13 11 14 8 0 16 6 19 14 3 9 0 11 -9 6 -8 -5 -11
-4 -6 1 5 5 13 10 18 10 5 1 14 2 20 3 5 0 8 5 5 10 -3 5 1 12 10 15 8 3 13
10 9 15 -3 5 0 13 6 17 8 4 9 3 5 -4 -4 -7 -2 -12 3 -12 6 0 11 7 11 15 0 8 6
14 13 13 7 -2 11 6 9 22 -1 15 1 20 6 13 6 -9 15 -6 35 11 15 13 24 26 20 30
-3 3 -2 6 4 6 20 0 66 48 58 60 -5 9 -4 11 3 6 7 -4 12 -2 12 4 0 6 5 8 12 4
8 -5 9 -2 5 10 -4 9 -3 15 2 11 13 -7 43 24 35 37 -4 6 -3 8 3 5 13 -8 176
150 168 163 -3 5 0 7 9 4 9 -3 17 2 21 15 3 12 11 19 16 16 5 -4 9 1 9 9 0 8
9 18 21 21 13 4 18 12 15 21 -3 8 -1 12 4 9 13 -8 73 51 65 64 -4 7 0 8 11 4
14 -5 16 -3 11 11 -4 9 -3 15 1 12 14 -8 54 25 48 40 -3 8 -2 13 2 13 23 -4
34 3 28 17 -3 8 -2 13 3 10 12 -8 71 45 71 63 0 8 3 12 6 8 10 -9 55 36 49 51
-2 7 -1 11 4 7 13 -7 133 113 126 126 -4 5 -3 9 2 8 23 -4 35 2 29 17 -3 8 -2
12 4 9 11 -7 73 49 64 58 -3 3 4 8 16 12 13 4 19 12 16 21 -3 7 -2 13 2 13 23
-4 34 3 28 17 -3 8 -2 13 2 10 12 -7 45 22 37 33 -4 7 0 8 11 4 14 -5 16 -3
11 11 -4 11 -3 15 4 11 5 -4 53 36 105 88 51 53 94 93 94 89 0 -3 5 -1 11 5
13 13 49 -13 49 -35 0 -7 3 -11 8 -9 9 5 42 -30 34 -37 -5 -5 4 -7 24 -5 3 0
15 -13 27 -28 39 -51 55 -65 66 -59 6 4 8 -2 6 -14 -2 -13 1 -20 11 -20 18 0
44 -24 44 -40 0 -6 4 -9 9 -5 5 3 12 -4 16 -15 3 -11 11 -20 17 -20 5 0 23
-14 39 -31 16 -17 29 -28 29 -24 0 3 16 -10 35 -31 19 -20 35 -41 35 -47 0 -6
3 -8 6 -5 3 3 16 -5 30 -19 13 -13 29 -21 36 -17 7 4 8 3 4 -4 -4 -6 15 -34
44 -63 27 -28 50 -47 50 -43 0 5 6 -2 13 -16 7 -14 20 -24 29 -24 11 1 14 -4
11 -14 -4 -10 -2 -13 5 -8 7 4 12 1 12 -9 0 -9 4 -14 9 -10 5 3 12 -4 16 -15
3 -11 14 -20 23 -20 15 0 15 -2 2 -10 -13 -8 -12 -10 3 -10 10 0 20 -7 24 -16
3 -8 12 -13 19 -10 8 3 13 2 13 -2 -3 -21 3 -32 17 -32 9 0 12 -5 8 -12 -5 -7
-2 -9 9 -5 11 4 14 2 11 -8 -4 -9 4 -19 20 -26 14 -7 23 -16 20 -20 -3 -5 2
-9 11 -9 9 0 13 -4 10 -10 -3 -5 1 -10 10 -10 9 0 13 -4 10 -10 -3 -5 1 -10
10 -10 10 0 13 -5 9 -12 -5 -7 -2 -9 8 -5 10 3 15 0 14 -11 -1 -10 6 -16 16
-16 10 1 15 -2 13 -7 -3 -4 13 -26 35 -49 22 -22 40 -37 41 -33 0 4 5 -3 10
-16 6 -14 15 -21 24 -18 10 4 12 1 8 -10 -4 -11 -2 -14 5 -9 7 4 12 1 12 -8 0
-15 12 -21 33 -17 5 1 6 -3 3 -8 -7 -11 36 -61 51 -61 6 0 17 -8 24 -17 13
-17 12 -17 -6 -4 -11 7 -5 -1 13 -18 18 -17 38 -29 44 -25 7 4 8 2 4 -5 -9
-13 57 -84 68 -74 3 4 6 1 6 -5 0 -6 20 -31 44 -55 23 -24 49 -52 55 -63 11
-16 12 -17 7 -1 -3 11 -2 15 4 12 6 -3 10 -12 10 -20 0 -7 9 -17 20 -20 11 -4
18 -11 15 -16 -4 -5 1 -9 10 -9 9 0 13 -4 10 -10 -3 -5 1 -10 10 -10 9 0 13
-4 10 -10 -3 -5 1 -10 10 -10 9 0 14 -3 12 -7 -5 -10 30 -43 37 -36 6 6 10
-14 7 -31 -1 -5 5 -3 14 4 9 7 15 9 13 4 -4 -15 22 -54 37 -54 7 0 17 -5 21
-12 5 -7 3 -8 -7 -3 -12 8 -12 6 0 -8 7 -9 20 -17 28 -17 8 0 11 -5 7 -12 -5
-7 -2 -9 9 -5 11 4 14 2 11 -8 -4 -9 4 -19 20 -26 14 -7 26 -19 26 -27 0 -8 6
-12 15 -8 8 3 14 2 14 -2 -3 -21 3 -32 17 -32 8 0 12 -4 9 -10 -3 -5 1 -10 10
-10 9 0 14 -3 12 -7 -3 -5 1 -14 9 -21 8 -7 14 -9 15 -5 0 4 5 -3 10 -16 6
-16 14 -21 26 -17 10 4 14 4 11 0 -12 -11 12 -46 28 -40 7 3 13 2 13 -2 -3
-21 3 -32 17 -32 8 0 12 -5 9 -10 -3 -5 1 -10 10 -10 9 0 13 -5 10 -10 -3 -6
4 -14 17 -19 13 -6 19 -10 14 -10 -15 -1 46 -61 61 -61 8 0 11 -5 7 -12 -5 -8
-2 -9 11 -4 16 6 16 4 4 -11 -9 -11 -10 -14 -1 -9 6 4 12 3 12 -3 0 -5 9 -13
20 -16 11 -4 18 -11 15 -16 -4 -5 1 -9 10 -9 9 0 14 -3 12 -7 -5 -10 30 -43
37 -35 3 3 6 1 6 -5 0 -15 55 -73 70 -73 7 0 11 -3 7 -6 -8 -8 18 -34 33 -34
6 0 8 -5 4 -12 -5 -8 -2 -9 11 -4 16 6 16 4 4 -11 -9 -11 -10 -14 -1 -9 6 4
12 3 12 -3 0 -5 9 -13 20 -16 11 -3 20 -13 20 -21 0 -8 5 -12 10 -9 6 3 10 -1
10 -10 0 -9 5 -13 10 -10 6 3 10 -1 10 -10 0 -9 5 -13 10 -10 6 3 10 1 10 -5
0 -6 5 -8 13 -4 7 5 6 0 -3 -11 -9 -11 -10 -16 -2 -11 7 4 12 2 12 -4 0 -7 6
-10 14 -7 10 4 13 -1 10 -16 -2 -12 -1 -16 2 -9 6 13 8 12 64 -57 14 -17 30
-31 37 -31 7 0 13 -6 13 -13 0 -18 34 -49 43 -40 4 3 7 0 7 -9 0 -16 44 -58
61 -58 5 0 7 -4 4 -10 -3 -5 1 -10 9 -10 9 0 16 -5 16 -10 0 -17 129 -142 140
-135 6 4 7 -1 3 -11 -4 -12 -3 -15 5 -10 7 4 12 1 12 -8 0 -15 12 -21 33 -17
5 1 6 -3 3 -7 -7 -12 29 -54 38 -45 3 3 6 0 6 -8 0 -8 12 -25 27 -39 15 -14
23 -18 19 -10 -4 8 -1 6 8 -5 8 -11 20 -25 25 -31 5 -7 7 -16 3 -20 -4 -5 1
-2 11 5 15 12 17 12 11 -4 -5 -13 -4 -16 4 -11 7 4 12 1 12 -7 0 -19 56 -70
69 -63 7 4 8 1 5 -8 -4 -11 2 -19 17 -25 13 -5 20 -10 16 -10 -4 -1 -2 -7 5
-15 7 -8 16 -12 21 -9 4 2 7 0 7 -6 0 -14 74 -91 88 -91 7 0 12 -5 12 -11 0
-5 5 -7 10 -4 6 3 10 1 10 -5 0 -6 5 -8 10 -5 6 3 10 -1 10 -10 0 -9 5 -13 10
-10 6 3 10 -1 10 -10 0 -12 5 -15 17 -11 10 4 14 4 11 1 -10 -11 45 -66 59
-60 8 2 11 0 8 -5 -3 -6 1 -10 9 -10 9 0 16 -4 16 -10 0 -5 7 -10 16 -10 8 0
13 4 10 8 -3 5 15 6 39 2 26 -4 48 -3 55 4 7 7 10 6 10 -3 0 -7 5 -9 10 -6 6
4 8 10 5 15 -3 5 0 12 6 16 8 5 9 3 4 -5 -5 -9 -2 -12 11 -9 11 2 18 9 17 15
-2 7 6 10 17 8 12 -2 19 -1 16 3 -5 9 20 32 28 25 5 -6 10 12 7 29 0 4 5 5 12
2 16 -6 51 31 43 45 -4 6 2 8 13 6 15 -3 19 1 16 15 -3 14 1 17 12 13 13 -5
15 -2 10 11 -4 11 -3 15 4 11 5 -4 20 4 32 17 12 12 38 36 57 52 19 16 27 27
18 23 -10 -3 -18 -4 -18 -1 0 2 12 9 26 14 17 7 24 16 21 25 -4 10 -1 12 10 8
12 -5 15 -2 10 10 -4 10 -2 14 6 12 7 -3 35 18 62 47 28 28 44 47 36 43 -9 -5
-12 -4 -7 3 4 7 13 12 20 12 18 0 58 49 50 62 -4 7 -3 8 4 4 7 -4 30 11 54 34
24 23 37 38 29 34 -9 -4 -12 -3 -7 4 4 6 14 8 23 5 10 -4 14 -2 10 4 -4 6 0
14 9 17 9 3 14 13 11 21 -4 10 -1 12 10 8 13 -5 15 -2 10 11 -4 11 -3 15 4 11
11 -8 120 95 113 106 -2 4 1 11 7 15 8 4 9 3 5 -4 -4 -7 -2 -12 3 -12 10 0 16
22 12 43 -1 5 3 6 9 2 5 -3 59 43 120 103 60 60 111 107 114 104 3 -2 10 7 15
22 6 14 13 26 16 26 4 0 3 -5 -1 -12 -4 -7 -3 -8 4 -4 7 4 12 14 12 22 0 8 5
12 10 9 6 -3 10 1 10 9 0 8 5 18 12 22 7 4 8 3 4 -4 -4 -7 -2 -12 3 -12 6 0
11 9 11 21 0 13 4 18 12 13 8 -5 9 -2 5 9 -3 9 -3 16 1 16 20 -3 32 3 32 16 0
8 3 14 8 12 4 -1 19 9 32 22 14 13 19 20 11 16 -9 -5 -12 -4 -7 3 4 7 14 12
22 12 11 0 14 6 9 23 -5 17 -4 19 5 7 9 -13 12 -13 25 4 8 10 12 22 10 26 -3
4 3 7 13 6 10 0 17 6 16 16 -1 11 4 14 14 11 10 -4 13 -2 8 5 -4 7 -1 12 8 12
9 0 16 7 16 16 0 9 5 12 12 8 8 -5 9 -2 5 10 -4 10 -3 15 3 11 12 -7 40 18 40
36 0 7 3 10 6 6 10 -9 47 30 40 42 -4 7 -1 8 8 5 11 -4 16 0 16 10 0 9 5 15
11 13 6 -1 14 4 17 12 3 9 0 11 -8 6 -8 -5 -11 -4 -6 3 4 6 13 9 20 6 8 -3 17
0 22 7 5 8 3 10 -7 4 -12 -8 -12 -6 0 8 7 9 17 14 22 11 5 -3 9 2 9 11 0 9 5
13 11 10 6 -4 13 2 16 14 3 11 10 18 16 14 7 -4 8 0 3 13 -4 10 -4 15 0 12 8
-9 46 10 40 20 -2 4 2 13 10 20 8 7 14 10 14 7 0 -2 9 3 19 12 11 9 18 20 15
25 -3 4 0 8 6 8 6 0 8 5 4 13 -5 7 0 6 11 -3 17 -13 18 -13 13 0 -6 16 16 43
26 33 3 -4 6 1 6 11 0 9 4 15 8 12 5 -3 15 6 22 19 7 13 17 22 22 19 4 -3 8 2
8 11 0 9 4 14 8 11 5 -3 15 6 22 19 7 13 17 22 22 19 4 -3 8 2 8 11 0 9 4 14
9 11 5 -3 12 6 15 19 4 14 11 23 16 20 6 -3 10 1 10 9 0 8 6 19 14 23 8 4 15
11 15 16 1 4 3 7 6 7 10 0 50 45 47 53 -1 5 2 6 7 3 5 -3 25 12 44 33 20 22
38 37 40 34 3 -2 8 5 12 16 3 12 10 21 14 21 4 0 18 9 31 20 13 11 19 20 14
20 -5 0 2 7 14 16 12 8 19 20 16 26 -4 6 -3 8 2 5 6 -3 29 14 52 39 24 24 47
44 52 44 5 0 12 9 15 20 4 11 10 18 15 15 5 -3 11 4 15 14 3 11 15 23 25 26
10 3 22 15 25 25 3 10 15 22 25 25 12 4 17 12 13 22 -4 10 -2 14 4 10 6 -4 16
0 23 8 7 8 9 15 4 15 -5 0 -1 5 9 11 9 6 14 15 11 21 -4 6 -3 9 2 6 5 -2 53
40 106 94 53 54 94 98 92 98 -3 0 36 42 88 93 52 51 97 101 101 110 3 9 11 17
17 17 6 0 8 5 5 10 -3 6 -2 10 3 10 25 0 19 33 -13 64 -29 29 -33 40 -31 73 2
21 5 38 6 38 1 0 3 16 5 35 4 42 12 77 20 90 3 6 2 10 -4 10 -5 0 -12 8 -16
19 -3 10 -23 37 -45 59 -22 22 -40 45 -40 51 0 6 -7 11 -15 11 -8 0 -15 6 -15
14 0 8 -9 18 -21 21 -11 4 -18 9 -16 12 3 2 -2 12 -11 22 -9 10 -30 34 -46 54
-17 20 -33 34 -38 31 -4 -3 -5 2 -2 10 4 11 0 16 -11 16 -9 0 -13 5 -10 10 3
6 -1 10 -9 10 -9 0 -16 7 -16 15 0 8 -4 15 -10 15 -5 0 -10 7 -10 15 0 9 -9
15 -22 15 -12 0 -19 3 -15 6 9 10 -30 47 -42 40 -6 -4 -9 -1 -6 6 3 7 -8 22
-24 33 -16 10 -28 22 -26 26 5 7 -41 49 -55 49 -6 0 -10 5 -10 11 0 20 -119
131 -131 123 -7 -4 -9 -3 -5 4 3 6 -1 17 -9 25 -8 9 -15 21 -15 28 0 7 -3 9
-7 6 -3 -4 -19 6 -34 22 -15 16 -30 27 -33 23 -6 -5 -10 13 -7 31 1 7 -16 11
-34 7 -5 -1 -7 1 -3 5 8 9 -16 35 -31 35 -6 0 -11 6 -11 14 0 17 -77 82 -92
78 -5 -1 -6 2 -3 8 4 6 -2 19 -14 29 -11 10 -17 22 -13 26 4 4 -3 6 -15 3 -16
-4 -20 -2 -16 8 7 19 -42 68 -58 58 -9 -5 -10 -2 -6 9 7 18 -25 42 -37 29 -4
-3 -4 1 0 11 4 12 -1 20 -17 26 -13 5 -20 10 -15 10 5 1 -5 14 -22 30 -16 16
-27 33 -24 37 4 5 0 3 -9 -4 -14 -11 -17 -10 -15 5 0 11 -6 18 -16 18 -9 0
-20 4 -25 9 -5 5 -2 6 6 1 9 -5 12 -3 9 6 -3 8 -11 13 -17 11 -6 -1 -10 4 -9
10 2 7 -5 12 -14 10 -12 -2 -16 3 -13 18 2 11 0 18 -6 15 -5 -4 -9 -1 -9 6 0
8 -4 8 -15 -1 -13 -11 -14 -10 -9 3 4 11 -16 38 -64 87 -38 38 -74 70 -80 70
-6 0 -14 5 -18 12 -5 7 -2 9 7 4 8 -5 -1 6 -20 23 -18 17 -38 31 -43 31 -5 0
-6 5 -3 11 4 6 -2 13 -14 16 -12 3 -21 12 -21 20 0 8 -5 11 -12 7 -7 -5 -9 -2
-5 9 4 12 2 14 -10 10 -9 -4 -14 -2 -11 3 3 5 -4 18 -15 29 -11 11 -16 13 -12
5 7 -12 6 -13 -6 -2 -8 7 -14 17 -14 23 0 5 -4 9 -10 8 -5 0 -13 9 -17 21 -4
12 -12 18 -18 15 -9 -6 -14 8 -11 28 2 12 -17 8 -22 -5 -3 -8 -6 -6 -6 5 -1
19 -50 74 -63 69 -4 -1 -7 3 -6 10 2 6 -8 17 -22 25 -14 7 -21 13 -17 13 5 0
-12 21 -36 46 -29 29 -50 43 -58 39 -8 -6 -10 -4 -5 4 10 15 -58 86 -73 77 -5
-4 -13 -1 -17 5 -5 8 -3 9 6 4 8 -5 11 -3 8 6 -3 8 -11 13 -17 11 -6 -1 -10 2
-9 7 2 5 -10 20 -25 35 -30 27 -43 34 -31 14 4 -7 3 -8 -5 -4 -6 4 -9 12 -5
17 3 6 -4 20 -15 31 -19 17 -24 18 -39 6 -15 -12 -16 -11 -3 5 12 15 10 21
-17 46 -17 16 -27 33 -24 37 4 4 1 4 -6 0 -13 -8 -45 18 -34 28 3 4 -4 9 -16
13 -12 3 -19 9 -16 14 3 5 0 9 -6 9 -15 0 -41 26 -33 34 4 3 -4 6 -16 6 -12 0
-20 3 -18 8 7 10 -49 62 -58 54 -5 -4 -5 -2 -2 4 7 11 -35 54 -53 54 -6 0 -10
3 -10 8 0 12 -58 72 -69 72 -6 0 -11 5 -11 10 0 14 -57 70 -71 70 -6 0 -7 5
-4 10 3 6 -1 10 -9 10 -9 0 -15 4 -14 9 4 12 -68 81 -77 73 -4 -4 -5 -2 -3 4
5 18 -95 115 -105 101 -6 -8 -7 -7 -4 4 6 18 -36 62 -49 51 -4 -4 -4 -2 -1 4
8 13 -62 94 -80 94 -7 0 -15 5 -19 12 -5 7 -2 8 7 3 8 -4 -1 7 -18 25 -23 22
-38 30 -50 26 -14 -6 -15 -4 -6 5 9 9 6 17 -13 34 -13 12 -20 26 -16 31 4 4
-1 2 -11 -5 -15 -12 -17 -12 -12 2 4 8 1 18 -6 23 -8 5 -10 3 -4 -6 5 -9 4
-11 -3 -6 -7 4 -12 11 -12 16 0 15 -33 50 -41 44 -5 -3 -11 7 -15 21 -3 14
-10 25 -16 25 -5 0 -19 11 -32 25 -13 14 -29 25 -35 25 -7 0 -10 4 -7 9 4 5
-7 20 -23 34 -17 14 -27 28 -24 31 4 3 0 6 -8 6 -19 0 -49 51 -44 76 2 10 4
22 4 27 1 4 6 7 11 7 6 0 19 9 30 20 11 11 18 20 15 20 -3 0 8 14 25 30 17 17
35 30 41 30 6 0 7 5 4 10 -3 6 -1 10 5 10 6 0 8 5 5 10 -3 6 -2 10 4 10 5 0
33 23 62 50 29 28 48 50 43 50 -5 0 2 6 16 13 14 8 24 19 22 25 -1 7 3 12 9
12 15 0 69 56 62 64 -4 3 -1 6 6 6 7 0 9 5 5 13 -6 9 -4 9 8 -1 14 -11 17 -10
23 7 3 12 11 21 16 21 6 0 7 5 4 10 -3 6 1 10 9 10 9 0 16 4 16 10 0 5 11 15
24 22 14 7 25 16 25 21 1 4 1 12 1 17 0 6 5 9 12 8 6 -2 17 7 23 20 7 13 14
23 16 22 10 -3 38 13 34 20 -3 4 2 11 11 14 8 3 12 10 9 16 -3 5 -1 10 6 10
13 0 96 80 83 81 -5 0 1 4 14 10 13 5 20 13 17 19 -4 6 -3 9 2 8 4 -1 28 16
52 40 24 23 40 42 35 42 -5 0 2 6 15 13 13 6 23 16 22 22 -2 5 7 13 19 17 17
6 20 11 11 21 -8 11 -6 13 12 12 27 -2 51 20 43 41 -3 9 -2 12 4 9 6 -4 30 14
55 39 24 25 49 46 55 46 9 0 14 14 11 33 0 4 6 7 15 7 8 0 12 5 9 10 -3 6 -1
10 6 10 14 0 85 71 81 82 -1 4 3 8 9 8 19 0 221 209 213 222 -4 7 -3 8 4 4 12
-7 122 96 122 114 0 6 5 8 10 5 6 -3 10 -1 10 5 0 6 5 8 10 5 6 -3 10 -2 10 4
0 6 23 33 52 61 28 27 47 50 42 51 -5 0 1 4 14 10 13 5 20 13 17 19 -4 6 -3 9
2 8 12 -4 53 34 53 49 0 7 3 12 8 11 14 -3 42 14 36 23 -3 5 0 9 5 9 6 0 11 7
11 15 0 8 3 14 8 14 18 -3 32 2 32 11 0 13 37 50 50 50 6 0 9 3 9 8 -3 17 1
32 9 30 8 -3 52 38 52 50 0 4 5 8 10 8 6 1 15 2 20 3 6 0 10 6 10 11 0 6 34
44 75 85 41 40 75 78 75 84 0 5 5 13 12 17 7 4 8 3 4 -4 -4 -7 -2 -12 3 -12
10 0 15 14 12 33 0 4 6 7 14 7 8 0 15 5 15 11 0 5 4 8 9 5 9 -6 26 22 22 37
-1 5 2 6 7 3 11 -7 44 32 37 44 -3 5 3 7 14 5 13 -2 22 3 26 16 4 10 15 24 26
30 11 5 16 15 13 21 -4 7 -3 8 4 4 8 -4 16 3 22 18 5 14 12 26 15 26 4 0 3 -4
0 -10 -3 -5 -1 -10 4 -10 6 0 12 5 12 10 1 6 2 15 3 20 0 6 5 9 9 8 5 -2 13 5
18 15 6 9 17 17 26 17 9 0 14 3 10 6 -3 3 28 39 69 79 40 39 74 77 74 83 0 7
7 9 18 5 9 -3 14 -2 10 2 -5 5 1 14 12 22 11 8 20 21 20 29 0 8 6 13 13 12 6
-2 11 2 10 9 -2 7 4 10 13 6 8 -3 14 -2 13 3 -3 18 1 37 7 31 8 -8 44 25 38
35 -3 5 -2 7 3 6 4 -2 27 16 51 40 23 23 47 42 54 42 6 0 8 3 5 7 -4 3 1 12
11 20 9 8 11 11 3 7 -9 -5 -12 -3 -7 5 4 6 11 9 15 6 11 -6 53 40 44 49 -5 4
-3 6 2 4 13 -4 55 38 47 48 -4 4 -2 4 5 1 6 -4 20 4 31 18 11 14 23 25 26 25
4 0 33 25 64 57 31 31 50 53 42 49 -8 -4 -5 1 8 10 12 9 22 23 22 31 0 9 6 13
15 9 9 -3 15 0 15 10 0 8 7 17 15 20 8 4 15 15 15 25 0 10 5 19 11 19 6 0 29
18 51 40 22 22 45 40 51 40 6 0 8 3 5 6 -4 3 19 30 49 59 30 30 52 59 48 65
-4 6 -3 10 2 9 20 -3 24 2 13 17 -11 12 -11 15 0 12 16 -4 33 49 17 56 -8 3
-8 5 1 5 8 1 10 6 5 14 -4 6 -8 14 -8 17 0 3 -13 31 -28 62 -17 35 -59 89
-110 141 -95 96 -147 154 -147 162 0 14 -103 104 -113 98 -5 -3 -7 -1 -3 5 7
12 -129 153 -140 143 -4 -3 -4 -1 -1 5 8 14 -52 86 -64 78 -5 -3 -8 0 -7 8 2
7 -4 12 -12 10 -8 -2 -12 0 -8 4 11 10 -12 35 -25 27 -5 -3 -7 -2 -4 4 4 6 -7
22 -23 37 -17 14 -30 31 -30 37 0 5 -4 8 -9 4 -5 -3 -12 -1 -16 5 -4 6 -11 8
-16 5 -5 -4 -9 1 -9 10 0 8 -7 18 -15 21 -8 3 -17 14 -20 25 -4 10 -12 19 -20
19 -8 0 -17 9 -20 20 -4 11 -11 18 -16 15 -5 -4 -9 1 -9 9 0 9 -7 16 -16 16
-8 0 -13 4 -9 9 3 5 -3 12 -13 15 -11 4 -24 18 -30 31 -10 22 -22 30 -44 26
-4 0 -5 6 -2 14 4 8 2 15 -3 15 -14 0 -103 88 -103 101 0 5 -4 7 -10 4 -5 -3
-10 -3 -10 2 0 14 -102 118 -113 115 -5 -2 -7 4 -4 11 3 9 -4 20 -19 27 -13 7
-26 21 -29 31 -4 10 -9 18 -13 16 -4 -1 -22 14 -41 33 -18 19 -38 34 -43 32
-5 -1 -7 2 -3 8 3 5 1 10 -4 10 -6 0 -11 6 -11 14 0 8 -9 18 -20 21 -11 3 -20
14 -20 23 0 15 -2 15 -10 2 -5 -8 -10 -10 -10 -4 0 10 -125 142 -136 143 -2 1
-9 1 -15 1 -5 0 -7 5 -4 10 3 6 1 10 -6 10 -7 0 -9 3 -6 6 9 9 -33 45 -45 38
-4 -3 -7 -2 -6 3 4 12 -28 54 -35 46 -4 -3 -7 1 -7 11 0 9 -4 14 -10 11 -5 -3
-10 1 -10 9 0 14 -12 20 -33 17 -4 0 -6 3 -5 7 2 4 -9 23 -24 41 -16 18 -28
29 -28 26 0 -4 -9 3 -20 16 -18 22 -18 25 -2 37 15 12 15 12 -3 11 -11 -1 -31
-1 -45 0 -18 1 -21 4 -11 10 11 7 9 10 -8 16 -11 3 -21 12 -21 20 0 8 -9 17
-20 20 -11 3 -20 13 -20 21 0 13 -12 19 -33 15 -5 -1 -6 3 -3 8 4 5 -3 16 -14
24 -11 7 -18 16 -16 18 2 2 -2 10 -10 17 -8 7 -14 9 -14 5 0 -4 -7 3 -16 15
-8 12 -20 20 -25 17 -5 -4 -9 0 -9 8 0 8 -7 18 -16 21 -8 3 -12 10 -9 16 3 5
-1 10 -9 10 -8 0 -18 9 -21 20 -4 11 -11 18 -16 15 -5 -4 -9 1 -9 10 0 9 -4
13 -10 10 -5 -3 -10 1 -10 9 0 14 -12 20 -33 17 -4 0 -6 3 -5 7 2 4 -9 23 -24
41 -16 18 -28 29 -28 25 0 -5 -8 3 -17 16 -23 34 -94 96 -105 92 -5 -1 -7 2
-3 7 3 6 -4 15 -16 21 -11 7 -18 14 -15 17 8 8 -35 44 -45 37 -5 -3 -6 2 -3
10 4 11 0 16 -10 16 -9 0 -16 4 -16 9 0 13 -80 86 -91 83 -5 -1 -8 1 -8 5 3
19 -2 33 -11 33 -9 0 -150 139 -150 148 0 2 -7 10 -15 18 -8 9 -15 13 -15 11
0 -3 -20 15 -45 40 -25 24 -45 48 -45 54 0 6 -4 7 -10 4 -5 -3 -15 5 -22 19
-6 14 -17 26 -24 26 -6 0 -15 7 -18 16 -3 8 -11 12 -16 9 -6 -4 -10 -3 -9 2 4
25 -1 35 -14 24 -17 -14 -28 -4 -19 17 5 15 4 15 -12 3 -15 -12 -17 -12 -14 0
2 9 -4 13 -14 11 -10 -2 -18 2 -18 9 0 9 -3 9 -14 0 -10 -8 -16 -9 -21 -1 -4
6 -13 7 -23 2 -9 -5 -35 -10 -57 -11 -21 -1 -44 -6 -50 -11 -7 -6 -16 -6 -20
-2 -5 4 -5 2 -1 -5 3 -7 -2 -14 -14 -18 -11 -4 -18 -11 -15 -16 4 -5 0 -9 -8
-9 -8 0 -22 -10 -31 -22 -9 -13 -14 -16 -11 -8 4 8 0 7 -9 -4 -8 -10 -13 -23
-9 -29 4 -6 1 -7 -6 -2 -17 10 -125 -100 -115 -117 6 -9 3 -9 -9 1 -15 12 -17
11 -17 -3 0 -9 -5 -16 -11 -16 -6 0 -8 -7 -5 -16 3 -8 2 -12 -3 -9 -5 3 -12 1
-16 -5 -4 -6 -10 -8 -15 -5 -5 3 -7 -4 -5 -15 2 -11 0 -18 -6 -15 -10 7 -82
-56 -74 -64 3 -2 -5 -9 -18 -16 -12 -6 -21 -18 -21 -27 1 -11 -4 -14 -14 -10
-11 4 -14 1 -9 -12 4 -11 3 -15 -4 -11 -13 9 -51 -34 -42 -48 3 -5 1 -7 -5 -4
-13 9 -42 -2 -42 -15 0 -5 6 -6 13 -2 7 4 9 3 4 -2 -5 -5 -14 -9 -20 -9 -7 -1
-11 -6 -9 -13 1 -7 -3 -12 -9 -12 -5 0 -7 -5 -3 -12 4 -7 3 -8 -5 -4 -15 9
-75 -50 -66 -65 4 -5 3 -9 -2 -8 -22 4 -35 -2 -30 -15 4 -11 1 -13 -10 -9 -13
5 -15 2 -10 -11 4 -10 3 -15 -3 -11 -13 8 -92 -73 -84 -87 4 -6 3 -8 -3 -5
-14 9 -53 -21 -53 -40 0 -9 -3 -14 -6 -10 -9 9 -36 -21 -29 -33 3 -6 -1 -7 -9
-4 -9 3 -16 1 -16 -6 0 -6 -4 -9 -9 -5 -6 3 -8 -4 -6 -15 2 -11 0 -18 -6 -15
-15 10 -40 -22 -33 -42 5 -15 4 -15 -5 -3 -8 12 -14 11 -35 -9 -14 -13 -23
-28 -20 -33 3 -5 0 -7 -8 -6 -7 2 -13 -5 -13 -14 0 -9 -4 -20 -9 -25 -5 -5 -6
-2 -1 6 5 9 3 12 -6 9 -8 -3 -13 -11 -12 -17 2 -6 -3 -10 -10 -8 -6 1 -11 -4
-10 -10 2 -7 -3 -13 -10 -13 -19 0 -50 -37 -42 -49 3 -6 0 -8 -8 -5 -16 6 -50
-34 -41 -48 3 -4 -3 -5 -12 -1 -13 5 -16 3 -11 -10 4 -10 2 -14 -6 -11 -17 6
-170 -153 -161 -167 5 -8 3 -9 -5 -4 -14 8 -61 -31 -61 -51 0 -7 -5 -16 -12
-20 -7 -5 -8 -3 -3 7 8 12 6 12 -9 0 -9 -8 -15 -20 -12 -28 4 -8 1 -11 -5 -8
-13 8 -49 -23 -49 -42 0 -8 -4 -12 -9 -9 -11 7 -43 -29 -34 -38 5 -4 3 -6 -3
-4 -13 4 -124 -105 -124 -122 0 -7 -3 -11 -6 -7 -10 9 -55 -36 -49 -51 3 -7 0
-10 -6 -7 -14 9 -41 -15 -35 -32 4 -9 1 -11 -5 -7 -6 4 -39 -22 -75 -60 -34
-36 -68 -66 -73 -66 -6 0 -11 -5 -11 -10 0 -6 -11 -21 -25 -34 -13 -13 -21
-27 -17 -31 4 -5 1 -5 -6 -1 -7 4 -15 1 -18 -8 -3 -9 -10 -13 -15 -10 -5 3 -9
1 -9 -5 0 -5 6 -12 13 -15 6 -4 2 -4 -11 -2 -12 2 -20 1 -17 -4 3 -4 -2 -11
-11 -14 -8 -3 -13 -10 -10 -15 3 -5 -1 -11 -9 -15 -8 -3 -15 -13 -15 -21 0 -9
-4 -13 -10 -10 -5 3 -10 -1 -10 -9 0 -9 -3 -15 -7 -15 -21 3 -33 -2 -33 -14 0
-8 -12 -19 -26 -26 -17 -7 -24 -17 -20 -27 3 -8 1 -12 -4 -9 -5 3 -18 -3 -30
-15 -11 -11 -25 -20 -30 -20 -6 0 -15 -11 -20 -25 -5 -14 -14 -25 -20 -25 -5
0 -10 -7 -10 -15 0 -8 -6 -14 -12 -12 -7 1 -12 -6 -12 -15 1 -10 -3 -15 -8
-12 -14 9 -161 -143 -152 -158 4 -7 3 -8 -5 -4 -14 9 -235 -209 -226 -223 3
-6 0 -8 -9 -5 -16 6 -40 -28 -28 -41 4 -5 1 -5 -6 -1 -8 5 -19 1 -28 -10 -9
-11 -12 -13 -8 -5 5 9 3 12 -5 7 -6 -4 -9 -10 -7 -14 5 -9 -20 -32 -28 -25 -3
3 -3 -4 -1 -17 4 -18 2 -20 -11 -9 -8 7 -14 8 -12 3 3 -10 -181 -194 -194
-194 -5 0 -8 -5 -8 -11 0 -6 -18 -27 -40 -48 -22 -21 -37 -41 -33 -46 5 -4 -1
-5 -12 -1 -11 4 -17 4 -14 1 3 -3 -21 -32 -53 -65 -37 -38 -56 -65 -52 -73 5
-6 -1 -5 -11 3 -10 8 -16 11 -13 5 3 -5 -17 -30 -44 -55 -27 -25 -75 -69 -105
-97 -35 -34 -64 -53 -79 -53 -27 0 -64 28 -64 47 0 7 -6 13 -14 13 -7 0 -19 7
-26 15 -7 8 -16 12 -21 9 -5 -3 -9 4 -9 15 0 12 -7 21 -16 21 -8 0 -13 3 -11
8 6 9 -19 33 -27 25 -3 -4 -6 -1 -6 5 0 7 -10 23 -22 37 -16 19 -24 22 -30 13
-5 -9 -8 -5 -8 10 0 13 -4 21 -9 18 -5 -3 -11 4 -14 15 -3 12 -10 18 -15 15
-6 -3 -13 1 -16 10 -3 9 -11 12 -18 8 -8 -5 -8 -1 2 12 8 10 11 16 6 12 -5 -4
-21 6 -37 23 -18 19 -33 28 -41 23 -8 -5 -7 -1 2 11 8 10 10 16 4 12 -9 -5
-96 68 -101 86 -4 15 -31 36 -37 30 -3 -4 -6 1 -6 10 0 10 -5 17 -11 17 -5 0
-7 6 -3 13 5 7 0 6 -11 -3 -10 -8 -16 -10 -13 -5 4 6 -7 26 -23 44 -16 19 -29
31 -29 28 0 -4 -15 10 -32 29 -18 20 -43 46 -55 59 -12 12 -19 26 -15 31 4 4
1 4 -5 0 -7 -4 -13 -2 -13 4 0 6 -4 8 -10 5 -5 -3 -10 -1 -10 4 0 6 -15 25
-32 42 -18 17 -32 36 -30 42 2 6 -3 5 -11 -2 -12 -9 -15 -8 -13 6 0 11 -5 18
-16 17 -10 -1 -14 4 -11 11 2 7 -5 16 -16 20 -12 3 -21 11 -21 16 0 14 -26 39
-40 39 -6 0 -8 5 -5 10 3 6 -1 10 -10 10 -8 0 -19 8 -22 17 -11 27 -92 102
-97 89 -2 -6 -5 -1 -5 12 -1 12 -7 22 -16 22 -8 0 -15 5 -15 11 0 14 -78 88
-85 81 -3 -3 -5 2 -5 12 0 9 -4 14 -10 11 -5 -3 -10 4 -10 15 0 16 -5 20 -15
16 -8 -3 -15 -1 -15 4 0 6 -11 20 -25 32 -14 12 -25 28 -25 36 0 9 -3 12 -6 9
-4 -3 -19 7 -34 23 -15 16 -30 26 -34 23 -6 -6 -10 13 -6 32 1 6 -1 7 -5 3 -4
-3 -37 24 -75 62 -38 37 -71 66 -73 63 -3 -2 -8 8 -11 22 -5 18 -12 25 -21 21
-8 -3 -14 -2 -12 3 2 8 -150 161 -161 161 -4 0 -15 14 -24 30 -9 17 -25 30
-34 30 -10 0 -15 3 -12 6 4 3 -7 18 -23 33 -16 15 -26 31 -22 34 3 4 -1 7 -10
7 -9 0 -17 5 -17 10 0 6 -7 10 -16 10 -8 0 -13 3 -11 8 6 9 -19 33 -27 25 -3
-4 -6 -2 -6 4 0 14 -68 82 -75 75 -3 -3 -5 0 -5 7 0 7 -14 24 -30 38 -17 13
-28 29 -24 34 3 5 -1 9 -8 9 -8 0 -20 9 -28 19 -7 11 -17 18 -22 15 -4 -3 -8
1 -8 8 0 8 -9 20 -19 28 -11 7 -18 17 -16 21 3 4 -6 10 -20 13 -14 4 -25 10
-25 14 0 4 -24 33 -54 64 -30 31 -52 59 -48 64 4 4 -1 4 -10 1 -10 -4 -18 -2
-18 2 0 14 -98 111 -112 111 -6 0 -9 2 -6 5 7 8 -47 65 -61 65 -6 0 -11 7 -11
16 0 8 -4 12 -10 9 -5 -3 -10 0 -10 7 0 7 -16 24 -34 38 -19 14 -32 27 -30 29
4 5 -58 61 -68 61 -5 0 -8 7 -8 15 0 9 -14 22 -31 29 -21 9 -27 15 -18 19 9 4
10 6 2 6 -7 1 -31 21 -54 46 -23 25 -44 43 -48 41 -4 -3 -13 9 -20 25 -7 16
-19 29 -26 29 -8 0 -17 9 -20 20 -4 11 -11 18 -16 15 -5 -4 -9 -1 -9 6 0 13
-69 79 -84 79 -5 0 -7 3 -3 6 6 6 -16 34 -27 34 -7 0 -99 94 -129 132 -12 15
-28 28 -35 28 -7 0 -10 5 -7 10 3 6 1 10 -5 10 -6 0 -15 10 -20 23 -5 12 -9
16 -9 10 -1 -7 -5 -13 -11 -13 -5 0 -7 7 -4 15 4 8 2 15 -3 15 -12 0 -73 57
-67 63 2 2 -7 10 -21 17 -14 7 -25 17 -25 21 0 8 -56 69 -64 69 -3 0 -23 18
-46 41 -22 22 -40 37 -40 34 0 -4 -7 -2 -15 5 -17 14 -155 21 -155 8z m-350
-312 c0 -2 -7 -7 -16 -10 -8 -3 -12 -2 -9 4 6 10 25 14 25 6z m-287 -281 c-3
-9 -8 -14 -10 -11 -3 3 -2 9 2 15 9 16 15 13 8 -4z m7307 -49 c0 -2 -7 -7 -16
-10 -8 -3 -12 -2 -9 4 6 10 25 14 25 6z m-7387 -31 c-3 -9 -8 -14 -10 -11 -3
3 -2 9 2 15 9 16 15 13 8 -4z m-773 -779 c0 -2 -7 -7 -16 -10 -8 -3 -12 -2 -9
4 6 10 25 14 25 6z m5760 -1580 c0 -2 -8 -10 -17 -17 -16 -13 -17 -12 -4 4 13
16 21 21 21 13z m5900 -620 c0 -2 -8 -10 -17 -17 -16 -13 -17 -12 -4 4 13 16
21 21 21 13z m-12852 -7346 c17 -27 10 -25 -19 6 -13 14 -17 23 -9 19 9 -3 21
-14 28 -25z m5432 -74 c0 -2 -8 -10 -17 -17 -16 -13 -17 -12 -4 4 13 16 21 21
21 13z m-5205 -154 c-3 -3 -11 0 -18 7 -9 10 -8 11 6 5 10 -3 15 -9 12 -12z
m735 -737 c14 -19 14 -19 -2 -6 -10 7 -18 18 -18 24 0 6 1 8 3 6 1 -2 9 -13
17 -24z m290 -269 c0 -3 -4 -8 -10 -11 -5 -3 -10 -1 -10 4 0 6 5 11 10 11 6 0
10 -2 10 -4z m151 -173 c13 -16 12 -17 -3 -4 -10 7 -18 15 -18 17 0 8 8 3 21
-13z m263 -259 c3 -8 2 -12 -4 -9 -6 3 -10 10 -10 16 0 14 7 11 14 -7z m7483
-139 c0 -8 -4 -12 -9 -9 -5 3 -6 10 -3 15 9 13 12 11 12 -6z m1584 -248 c-10
-9 -11 -8 -5 6 3 10 9 15 12 12 3 -3 0 -11 -7 -18z m-141 -141 c0 -3 -4 -8
-10 -11 -5 -3 -10 -1 -10 4 0 6 5 11 10 11 6 0 10 -2 10 -4z m-980 -62 c0 -8
-19 -13 -24 -6 -3 5 1 9 9 9 8 0 15 -2 15 -3z m17 -29 c0 -8 -4 -12 -9 -9 -5
3 -6 10 -3 15 9 13 12 11 12 -6z m803 -69 c0 -3 -4 -8 -10 -11 -5 -3 -10 -1
-10 4 0 6 5 11 10 11 6 0 10 -2 10 -4z m-646 -92 c3 -8 2 -12 -4 -9 -6 3 -10
10 -10 16 0 14 7 11 14 -7z m506 -48 c0 -2 -8 -10 -17 -17 -16 -13 -17 -12 -4
4 13 16 21 21 21 13z"/>
<path d="M22025 21820 c5 -9 1 -10 -16 -6 -13 3 -18 3 -11 0 6 -3 10 -9 8 -12
-2 -4 14 -7 35 -8 21 -1 39 3 39 8 0 5 9 4 20 -2 15 -8 18 -8 14 3 -3 8 -17
13 -32 12 -15 -1 -35 2 -46 8 -14 7 -16 6 -11 -3z"/>
<path d="M29340 21791 c0 -7 -6 -11 -15 -8 -8 4 -17 2 -20 -4 -4 -5 -10 -7
-15 -4 -5 3 -11 1 -14 -4 -3 -5 9 -7 27 -4 17 2 43 4 57 4 15 0 19 3 10 6 -8
3 -18 11 -22 17 -5 7 -8 7 -8 -3z"/>
<path d="M29387 21789 c7 -7 15 -10 18 -7 3 3 -2 9 -12 12 -14 6 -15 5 -6 -5z"/>
<path d="M29236 21753 c-6 -14 -5 -15 5 -6 7 7 10 15 7 18 -3 3 -9 -2 -12 -12z"/>
<path d="M22217 21743 c-12 -12 -7 -21 16 -26 20 -5 20 -5 5 7 -10 7 -15 16
-11 19 3 4 4 7 1 7 -2 0 -8 -3 -11 -7z"/>
<path d="M21829 21693 c-13 -16 -12 -17 4 -4 16 13 21 21 13 21 -2 0 -10 -8
-17 -17z"/>
<path d="M22260 21690 c8 -5 20 -10 25 -10 6 0 3 5 -5 10 -8 5 -19 10 -25 10
-5 0 -3 -5 5 -10z"/>
<path d="M29150 21690 c0 -5 5 -10 11 -10 5 0 7 5 4 10 -3 6 -8 10 -11 10 -2
0 -4 -4 -4 -10z"/>
<path d="M29575 21673 c2 -10 4 -21 4 -25 1 -5 6 -8 11 -8 6 0 22 -11 36 -25
14 -14 29 -25 35 -25 6 0 7 -6 3 -12 -4 -7 -4 -10 1 -6 4 4 16 -4 27 -17 11
-14 23 -25 28 -25 11 0 -38 51 -91 96 -24 20 -44 40 -44 44 0 5 -3 11 -7 15
-3 4 -5 -1 -3 -12z"/>
<path d="M29119 21663 c-12 -16 -12 -17 2 -6 9 7 20 9 24 5 5 -4 5 -1 1 6 -9
16 -11 15 -27 -5z"/>
<path d="M21789 21653 c-13 -16 -12 -17 4 -4 16 13 21 21 13 21 -2 0 -10 -8
-17 -17z"/>
<path d="M22293 21655 c0 -8 4 -12 9 -9 4 3 8 9 8 15 0 5 -4 9 -8 9 -5 0 -9
-7 -9 -15z"/>
<path d="M22310 21631 c0 -14 29 -21 36 -9 4 7 3 8 -4 4 -7 -4 -12 -2 -12 3 0
6 -4 11 -10 11 -5 0 -10 -4 -10 -9z"/>
<path d="M21755 21619 c-4 -6 -5 -12 -2 -15 2 -3 7 2 10 11 7 17 1 20 -8 4z"/>
<path d="M22354 21605 c-7 -17 12 -45 30 -45 6 0 3 5 -6 10 -10 6 -15 19 -13
30 5 24 -3 27 -11 5z"/>
<path d="M22403 21552 c-9 -6 -7 -11 7 -20 12 -7 20 -8 20 -2 0 5 -5 10 -11
10 -5 0 -7 5 -4 10 7 12 4 12 -12 2z"/>
<path d="M28990 21556 c0 -2 7 -7 16 -10 8 -3 12 -2 9 4 -6 10 -25 14 -25 6z"/>
<path d="M29730 21512 c0 -5 7 -9 15 -9 8 0 12 4 9 9 -3 4 -9 8 -15 8 -5 0 -9
-4 -9 -8z"/>
<path d="M22450 21502 c0 -5 9 -17 20 -27 11 -10 20 -13 20 -8 0 6 -7 14 -16
17 -8 3 -12 10 -9 16 3 5 1 10 -4 10 -6 0 -11 -4 -11 -8z"/>
<path d="M29779 21467 c26 -28 31 -32 31 -19 0 4 -13 16 -28 26 l-27 19 24
-26z"/>
<path d="M22500 21451 c0 -6 5 -11 11 -11 5 0 7 -4 4 -10 -3 -6 1 -7 10 -4 9
4 15 7 13 8 -2 1 -11 8 -20 15 -12 9 -18 10 -18 2z"/>
<path d="M29817 21433 c-4 -3 2 -12 13 -20 11 -8 20 -21 20 -29 0 -8 4 -14 9
-14 5 0 16 -7 25 -15 8 -8 17 -11 20 -7 3 5 -5 14 -17 21 -12 7 -31 25 -43 41
-11 17 -24 27 -27 23z"/>
<path d="M22530 21411 c0 -6 5 -13 10 -16 6 -3 10 1 10 9 0 9 -4 16 -10 16 -5
0 -10 -4 -10 -9z"/>
<path d="M22560 21392 c0 -7 11 -24 24 -37 13 -13 22 -26 20 -29 -2 -3 -1 -4
3 -1 13 10 11 34 -2 29 -8 -3 -20 7 -29 23 -8 15 -15 22 -16 15z"/>
<path d="M28840 21385 c-7 -9 -11 -17 -9 -20 3 -2 10 5 17 15 14 24 10 26 -8
5z"/>
<path d="M22635 21330 c3 -5 8 -10 11 -10 2 0 4 5 4 10 0 6 -5 10 -11 10 -5 0
-7 -4 -4 -10z"/>
<path d="M29940 21309 c19 -18 34 -37 33 -41 -2 -4 2 -8 7 -8 20 0 9 18 -32
49 l-43 33 35 -33z"/>
<path d="M22627 21309 c7 -7 15 -10 18 -7 3 3 -2 9 -12 12 -14 6 -15 5 -6 -5z"/>
<path d="M22705 21244 c28 -25 49 -48 48 -52 0 -4 6 -14 15 -22 14 -13 15 -12
8 5 -5 11 -9 25 -9 32 0 7 -4 10 -8 7 -4 -2 -15 6 -24 18 -8 13 -19 22 -23 22
-4 -1 -6 2 -4 8 1 5 -2 7 -8 3 -5 -3 -10 -2 -10 3 0 6 -8 13 -17 16 -10 3 5
-15 32 -40z"/>
<path d="M28695 21239 c-4 -6 -5 -12 -2 -15 2 -3 7 2 10 11 7 17 1 20 -8 4z"/>
<path d="M30015 21230 c-3 -5 -1 -10 4 -10 6 0 11 5 11 10 0 6 -2 10 -4 10 -3
0 -8 -4 -11 -10z"/>
<path d="M22795 21160 c-4 -6 12 -28 34 -49 22 -21 37 -41 34 -45 -4 -4 1 -4
11 0 15 6 17 4 11 -6 -5 -9 -4 -11 3 -6 7 4 12 3 12 -2 0 -5 20 -30 43 -55 33
-34 47 -43 58 -35 11 8 10 9 -5 4 -14 -5 -17 -2 -12 11 4 10 4 14 0 11 -7 -8
-84 68 -84 83 0 5 -5 9 -11 9 -16 0 -39 26 -31 35 4 5 1 5 -6 1 -7 -4 -15 -1
-18 8 -3 9 -13 16 -21 16 -9 0 -13 6 -9 15 6 17 0 20 -9 5z"/>
<path d="M28596 21141 c-13 -14 -14 -21 -5 -27 7 -4 10 -3 5 4 -3 6 4 18 16
26 12 9 18 16 12 16 -6 0 -19 -9 -28 -19z"/>
<path d="M28515 21059 c-4 -6 -5 -12 -2 -15 2 -3 7 2 10 11 7 17 1 20 -8 4z"/>
<path d="M28476 21032 c-3 -5 1 -9 9 -9 8 0 12 4 9 9 -3 4 -7 8 -9 8 -2 0 -6
-4 -9 -8z"/>
<path d="M23000 20933 c0 -10 4 -14 8 -8 4 6 11 13 16 18 5 4 2 7 -7 7 -10 0
-17 -8 -17 -17z"/>
<path d="M23034 20915 c11 -8 24 -15 29 -15 4 0 5 -4 2 -10 -3 -5 -1 -10 4
-10 6 0 10 -4 9 -10 -3 -10 100 -110 114 -110 5 0 6 -5 2 -12 -4 -7 -3 -8 4
-4 7 4 12 1 12 -9 0 -11 5 -15 14 -12 10 4 13 1 9 -9 -3 -7 0 -14 7 -14 16 0
41 -26 32 -35 -4 -4 -2 -5 5 -3 6 2 11 -1 12 -5 1 -11 28 -37 40 -37 5 0 13
-9 16 -20 4 -11 10 -18 14 -16 3 3 17 -11 30 -30 15 -21 30 -33 38 -30 8 3 11
1 8 -4 -3 -5 10 -25 29 -44 22 -22 36 -31 40 -23 2 7 5 5 5 -4 1 -9 8 -20 17
-23 9 -3 12 -11 8 -18 -4 -7 -3 -10 1 -5 5 4 17 -5 27 -20 10 -16 18 -22 18
-15 0 10 3 10 14 0 8 -7 11 -17 8 -22 -3 -5 0 -6 7 -1 9 5 8 13 -7 29 -11 11
-22 28 -25 36 -4 11 -6 10 -6 -5 -1 -18 -3 -17 -18 5 -31 44 -46 59 -55 54 -7
-5 -8 -1 -8 21 0 3 -18 22 -39 42 -22 20 -38 40 -35 44 2 4 -5 6 -16 4 -18 -3
-25 5 -21 27 0 4 -6 5 -14 2 -8 -4 -15 -1 -15 5 0 6 5 11 11 11 5 0 7 5 3 11
-4 7 -9 8 -13 1 -9 -14 -42 11 -45 35 -2 10 -7 18 -12 18 -17 0 -34 16 -29 26
3 5 -2 6 -11 2 -12 -4 -15 -3 -10 5 4 7 1 15 -8 18 -9 3 -13 11 -9 17 3 5 1 7
-4 4 -6 -4 -18 4 -27 18 -9 14 -23 25 -31 25 -8 0 -15 9 -15 20 0 11 -3 19 -7
19 -21 -3 -33 3 -33 17 0 9 5 12 12 8 7 -4 8 -3 4 5 -4 6 -12 9 -17 5 -5 -3
-22 8 -38 25 -16 17 -35 31 -43 31 -8 -1 -6 -6 6 -15z m381 -365 c10 -11 16
-20 13 -20 -3 0 -13 9 -23 20 -10 11 -16 20 -13 20 3 0 13 -9 23 -20z m46 -47
c13 -16 12 -17 -3 -4 -17 13 -22 21 -14 21 2 0 10 -8 17 -17z"/>
<path d="M28305 20850 c-3 -6 1 -7 9 -4 18 7 21 14 7 14 -6 0 -13 -4 -16 -10z"/>
<path d="M28256 20807 c3 -10 9 -15 12 -12 3 3 0 11 -7 18 -10 9 -11 8 -5 -6z"/>
<path d="M28189 20733 c-13 -16 -12 -17 4 -4 16 13 21 21 13 21 -2 0 -10 -8
-17 -17z"/>
<path d="M28156 20698 c3 -5 10 -6 15 -3 13 9 11 12 -6 12 -8 0 -12 -4 -9 -9z"/>
<path d="M23624 20324 c3 -9 6 -18 6 -20 0 -3 5 -2 10 1 6 3 10 1 10 -5 0 -6
11 -22 25 -35 13 -14 29 -25 35 -25 6 0 8 -5 5 -10 -4 -6 -3 -9 2 -8 4 2 9 -1
11 -7 2 -5 14 -16 28 -23 13 -7 23 -16 20 -20 -8 -13 20 -30 35 -21 11 7 11 9
-3 9 -10 0 -18 5 -18 10 0 6 5 10 11 10 5 0 7 5 3 11 -4 7 -9 8 -13 1 -11 -18
-42 13 -35 34 4 13 3 15 -3 6 -8 -10 -12 -10 -22 2 -7 8 -9 21 -5 27 4 7 3 9
-3 6 -6 -4 -16 0 -23 8 -7 8 -15 13 -19 11 -4 -3 -12 4 -19 15 -10 15 -10 19
0 19 9 0 8 3 -2 10 -24 15 -43 12 -36 -6z m77 -61 c13 -16 12 -17 -3 -4 -17
13 -22 21 -14 21 2 0 10 -8 17 -17z"/>
<path d="M23820 20125 c17 -20 30 -19 30 3 0 14 -2 15 -10 2 -6 -10 -10 -11
-10 -2 0 6 -5 12 -11 12 -8 0 -8 -5 1 -15z"/>
<path d="M23850 20094 c0 -9 53 -54 63 -54 4 0 7 5 7 10 0 6 -7 10 -15 10 -8
0 -12 6 -9 14 3 8 1 17 -5 21 -7 4 -9 -1 -5 -12 5 -17 5 -17 -9 0 -14 17 -27
22 -27 11z"/>
<path d="M23927 20037 c-5 -12 -3 -16 5 -11 7 5 10 2 6 -7 -4 -12 55 -80 72
-83 3 -1 4 -7 4 -13 -1 -7 2 -10 7 -7 12 7 40 -21 31 -31 -4 -5 -2 -5 4 -2 10
6 43 -21 37 -30 -2 -1 -1 -3 2 -3 3 0 9 0 14 0 6 0 -12 22 -39 48 -27 27 -47
52 -45 55 3 4 2 5 -1 2 -4 -2 -15 7 -26 20 -11 14 -25 25 -32 25 -7 0 -17 12
-22 28 -8 23 -11 24 -17 9z m64 -64 c13 -16 12 -17 -3 -4 -17 13 -22 21 -14
21 2 0 10 -8 17 -17z"/>
<path d="M24136 19815 c15 -14 24 -25 20 -25 -4 0 11 -18 33 -40 22 -22 47
-40 55 -40 10 0 13 -6 10 -17 -5 -15 -4 -16 5 -3 9 13 11 12 11 -6 0 -12 11
-26 25 -34 13 -7 23 -16 22 -19 -3 -6 39 -50 48 -51 3 0 10 0 16 0 5 0 7 -4 4
-10 -3 -6 1 -7 10 -4 14 6 14 8 -2 20 -10 7 -24 14 -31 14 -7 0 -10 5 -7 10 3
6 -2 10 -12 10 -14 0 -15 2 -5 9 10 6 9 10 -7 14 -12 3 -21 10 -21 17 0 6 5 8
12 4 7 -4 8 -3 4 5 -5 8 -12 9 -20 2 -8 -7 -15 -1 -25 20 -8 17 -20 29 -32 29
-10 0 -19 5 -19 11 0 5 5 7 12 3 6 -4 8 -3 5 4 -4 5 -17 8 -30 5 -18 -4 -19
-3 -7 6 11 8 12 11 2 11 -7 0 -11 4 -8 9 3 5 -2 15 -11 22 -12 10 -14 10 -9 2
4 -7 3 -13 -1 -13 -12 0 -34 38 -25 43 4 2 1 2 -5 1 -7 -2 -13 1 -13 6 0 6 -7
10 -16 10 -10 0 -7 -7 12 -25z"/>
<path d="M17009 19503 c-13 -16 -12 -17 4 -4 16 13 21 21 13 21 -2 0 -10 -8
-17 -17z"/>
<path d="M200 17299 c0 -5 5 -7 10 -4 6 3 10 8 10 11 0 2 -4 4 -10 4 -5 0 -10
-5 -10 -11z"/>
<path d="M30005 15970 c3 -5 8 -10 11 -10 2 0 4 5 4 10 0 6 -5 10 -11 10 -5 0
-7 -4 -4 -10z"/>
<path d="M29975 15949 c-4 -6 -5 -12 -2 -15 2 -3 7 2 10 11 7 17 1 20 -8 4z"/>
<path d="M29895 15869 c-4 -6 -5 -12 -2 -15 2 -3 7 2 10 11 7 17 1 20 -8 4z"/>
<path d="M29815 15790 c-3 -6 1 -7 9 -4 18 7 21 14 7 14 -6 0 -13 -4 -16 -10z"/>
<path d="M29655 15630 c-3 -6 1 -7 9 -4 18 7 21 14 7 14 -6 0 -13 -4 -16 -10z"/>
<path d="M29620 15598 c-10 -21 -10 -21 3 -6 8 10 18 14 22 10 5 -4 5 -1 1 6
-10 17 -14 15 -26 -10z"/>
<path d="M29590 15560 c0 -5 5 -10 11 -10 5 0 7 5 4 10 -3 6 -8 10 -11 10 -2
0 -4 -4 -4 -10z"/>
<path d="M29465 15450 c-3 -6 1 -7 9 -4 18 7 21 14 7 14 -6 0 -13 -4 -16 -10z"/>
<path d="M29370 15349 c0 -5 5 -7 10 -4 6 3 10 8 10 11 0 2 -4 4 -10 4 -5 0
-10 -5 -10 -11z"/>
<path d="M29296 15272 c-3 -5 1 -9 9 -9 8 0 12 4 9 9 -3 4 -7 8 -9 8 -2 0 -6
-4 -9 -8z"/>
<path d="M29216 15193 c-6 -14 -5 -15 5 -6 7 7 10 15 7 18 -3 3 -9 -2 -12 -12z"/>
<path d="M29191 15164 c0 -11 3 -14 6 -6 3 7 2 16 -1 19 -3 4 -6 -2 -5 -13z"/>
<path d="M29159 15123 c-13 -16 -12 -17 4 -4 9 7 17 15 17 17 0 8 -8 3 -21
-13z"/>
<path d="M29067 15050 c-15 -16 -27 -35 -27 -41 0 -13 35 21 35 35 1 6 6 10
11 9 6 -1 11 5 11 13 0 18 1 19 -30 -16z"/>
<path d="M29017 15014 c-3 -3 -3 -13 0 -22 4 -10 2 -13 -6 -8 -20 13 -4 -45
19 -68 11 -11 20 -15 20 -9 0 6 -7 16 -16 23 -11 10 -14 23 -9 52 7 37 5 44
-8 32z"/>
<path d="M29054 14889 c-4 -7 -3 -9 4 -5 6 3 15 -2 21 -11 6 -10 11 -13 11 -7
0 20 -27 37 -36 23z"/>
<path d="M29515 14431 c-3 -5 -2 -12 3 -15 5 -3 9 1 9 9 0 17 -3 19 -12 6z"/>
<path d="M29540 14413 c0 -6 8 -17 18 -24 16 -13 16 -13 2 6 -8 11 -16 22 -17
24 -2 2 -3 0 -3 -6z"/>
<path d="M29630 14306 c7 -7 13 -7 20 0 6 6 3 10 -10 10 -13 0 -16 -4 -10 -10z"/>
<path d="M29668 14273 c7 -3 16 -2 19 1 4 3 -2 6 -13 5 -11 0 -14 -3 -6 -6z"/>
<path d="M29690 14252 c0 -5 7 -9 15 -9 8 0 12 4 9 9 -3 4 -9 8 -15 8 -5 0 -9
-4 -9 -8z"/>
<path d="M29737 14213 c-5 -7 36 -63 46 -63 2 0 4 7 4 15 0 8 -4 12 -8 10 -7
-5 -36 25 -31 32 2 3 1 7 -1 9 -3 3 -7 2 -10 -3z"/>
<path d="M29804 14134 c2 -9 13 -19 26 -21 13 -2 22 -2 19 -1 -2 2 -14 11 -26
21 -20 18 -21 18 -19 1z"/>
<path d="M29836 14088 c3 -4 9 -8 15 -8 5 0 9 4 9 8 0 5 -7 9 -15 9 -8 0 -12
-4 -9 -9z"/>
<path d="M29865 14070 c-3 -6 1 -7 9 -4 18 7 21 14 7 14 -6 0 -13 -4 -16 -10z"/>
<path d="M29885 14050 c3 -5 8 -10 11 -10 2 0 4 5 4 10 0 6 -5 10 -11 10 -5 0
-7 -4 -4 -10z"/>
<path d="M29920 14020 c-9 -6 -10 -10 -3 -10 6 0 26 -12 45 -27 l33 -27 -25
29 c-14 17 -27 33 -30 37 -3 4 -12 3 -20 -2z"/>
<path d="M29995 13951 c-3 -5 -2 -12 3 -15 5 -3 9 1 9 9 0 17 -3 19 -12 6z"/>
<path d="M30020 13933 c0 -6 8 -17 18 -24 16 -13 16 -13 2 6 -8 11 -16 22 -17
24 -2 2 -3 0 -3 -6z"/>
<path d="M83 12775 c0 -8 4 -12 9 -9 5 3 6 10 3 15 -9 13 -12 11 -12 -6z"/>
<path d="M24356 10323 c-6 -14 -5 -15 5 -6 7 7 10 15 7 18 -3 3 -9 -2 -12 -12z"/>
<path d="M24116 10083 c-6 -14 -5 -15 5 -6 7 7 10 15 7 18 -3 3 -9 -2 -12 -12z"/>
<path d="M24040 10010 c-9 -6 -10 -10 -3 -10 6 0 15 5 18 10 8 12 4 12 -15 0z"/>
<path d="M23876 9855 c-3 -8 -1 -15 4 -15 6 0 10 7 10 15 0 8 -2 15 -4 15 -2
0 -6 -7 -10 -15z"/>
<path d="M23740 9710 c-9 -6 -10 -10 -3 -10 6 0 15 5 18 10 8 12 4 12 -15 0z"/>
<path d="M23713 9685 c0 -8 4 -12 9 -9 5 3 6 10 3 15 -9 13 -12 11 -12 -6z"/>
<path d="M23679 9643 c-13 -16 -12 -17 4 -4 16 13 21 21 13 21 -2 0 -10 -8
-17 -17z"/>
<path d="M23356 9335 c-9 -26 -7 -32 5 -12 6 10 9 21 6 23 -2 3 -7 -2 -11 -11z"/>
<path d="M23160 9130 c-9 -6 -10 -10 -3 -10 6 0 15 5 18 10 8 12 4 12 -15 0z"/>
<path d="M23016 8993 c-6 -14 -5 -15 5 -6 7 7 10 15 7 18 -3 3 -9 -2 -12 -12z"/>
<path d="M22994 8972 c3 -5 0 -13 -6 -15 -9 -4 -10 -6 -1 -6 17 -1 25 16 12
25 -7 4 -9 3 -5 -4z"/>
<path d="M22950 8935 c-8 -9 -8 -15 -2 -15 12 0 26 19 19 26 -2 2 -10 -2 -17
-11z"/>
<path d="M22916 8902 c-4 -13 -17 -27 -29 -32 -15 -6 -17 -9 -6 -9 20 -1 52
34 47 51 -3 8 -8 4 -12 -10z"/>
<path d="M22851 8814 c0 -11 3 -14 6 -6 3 7 2 16 -1 19 -3 4 -6 -2 -5 -13z"/>
<path d="M22790 8769 c0 -5 5 -7 10 -4 6 3 10 8 10 11 0 2 -4 4 -10 4 -5 0
-10 -5 -10 -11z"/>
<path d="M22770 8750 c0 -5 5 -10 11 -10 5 0 7 5 4 10 -3 6 -8 10 -11 10 -2 0
-4 -4 -4 -10z"/>
<path d="M22734 8715 c-9 -14 -20 -22 -25 -19 -5 3 -9 0 -9 -5 0 -24 32 -2 54
37 13 23 -3 12 -20 -13z"/>
<path d="M18880 8686 c0 -2 8 -10 18 -17 15 -13 16 -12 3 4 -13 16 -21 21 -21
13z"/>
<path d="M22682 8675 c4 -4 0 -13 -9 -20 -13 -10 -14 -13 -2 -20 8 -5 11 -5 7
0 -4 4 0 13 9 20 13 10 14 13 2 20 -8 5 -11 5 -7 0z"/>
<path d="M22635 8619 c-4 -6 -4 -13 -1 -16 3 -4 6 -1 6 6 0 7 5 9 12 5 7 -4 8
-3 4 4 -9 15 -13 15 -21 1z"/>
<path d="M22605 8590 c3 -5 11 -10 16 -10 6 0 7 5 4 10 -3 6 -11 10 -16 10 -6
0 -7 -4 -4 -10z"/>
<path d="M22571 8554 c-13 -15 -17 -24 -10 -22 12 4 46 48 37 48 -2 0 -15 -12
-27 -26z"/>
<path d="M22530 8516 c0 -2 7 -7 16 -10 8 -3 12 -2 9 4 -6 10 -25 14 -25 6z"/>
<path d="M22480 8471 c0 -6 4 -13 10 -16 6 -3 7 1 4 9 -7 18 -14 21 -14 7z"/>
<path d="M22461 8441 c-8 -5 -9 -11 -3 -15 5 -3 12 1 16 9 6 17 6 18 -13 6z"/>
<path d="M22411 8400 c-18 -15 -19 -20 -7 -20 9 0 16 4 16 10 0 5 8 7 18 4 13
-5 14 -4 3 4 -11 8 -11 10 0 15 8 3 10 6 4 6 -5 0 -21 -9 -34 -19z"/>
<path d="M22381 8361 c-8 -5 -9 -11 -3 -15 5 -3 12 1 16 9 6 17 6 18 -13 6z"/>
<path d="M21730 8331 c0 -6 4 -13 10 -16 6 -3 7 1 4 9 -7 18 -14 21 -14 7z"/>
<path d="M22349 8323 c-13 -16 -12 -17 4 -4 16 13 21 21 13 21 -2 0 -10 -8
-17 -17z"/>
<path d="M22320 8313 c0 -11 -93 -111 -103 -112 -4 0 -25 -13 -47 -28 -26 -20
-36 -33 -31 -42 6 -9 10 -6 15 11 5 18 8 20 15 9 7 -11 10 -9 16 8 3 12 11 19
16 15 5 -3 8 0 7 7 -2 7 2 13 9 14 6 0 23 10 36 22 14 12 28 19 32 15 3 -4 3
2 -1 12 -6 15 -4 17 7 11 8 -4 11 -5 7 -1 -8 10 23 47 34 40 4 -3 5 2 2 10 -6
17 -14 21 -14 9z"/>
<path d="M21797 8259 c7 -7 15 -10 18 -7 3 3 -2 9 -12 12 -14 6 -15 5 -6 -5z"/>
<path d="M29160 8265 c0 -5 5 -17 10 -25 5 -8 10 -10 10 -5 0 6 -5 17 -10 25
-5 8 -10 11 -10 5z"/>
<path d="M21850 8211 c0 -6 4 -13 10 -16 6 -3 7 1 4 9 -7 18 -14 21 -14 7z"/>
<path d="M29331 8157 c-8 -10 -7 -14 4 -14 8 0 12 4 9 9 -3 4 2 8 11 8 9 0 14
-4 11 -8 -3 -5 5 -7 17 -6 12 1 26 3 31 3 20 2 -4 12 -37 17 -21 2 -39 -1 -46
-9z"/>
<path d="M21970 8133 c0 -1 9 -7 20 -13 15 -8 20 -8 20 3 0 7 -9 13 -20 13
-11 0 -20 -1 -20 -3z"/>
<path d="M22026 8123 c-3 -7 0 -15 6 -19 6 -4 8 -3 4 4 -4 7 6 10 26 10 49 0
58 1 58 10 0 13 -89 9 -94 -5z"/>
<path d="M5230 7603 c8 -3 19 -11 23 -17 6 -7 7 -6 4 4 -2 8 -12 16 -23 17
-13 2 -15 1 -4 -4z"/>
</g>
</svg>
